<?xml version="1.0" encoding="UTF-8"?>
<svg id="_圖層_3_拷貝" data-name="圖層 3 拷貝" xmlns="http://www.w3.org/2000/svg" viewBox="0 0 26.25 38.76">
  <defs>
    <style>
      .cls-1 {
        fill: #fff;
      }
    </style>
  </defs>
  <g>
    <path class="cls-1" d="M4.53,36.14c0,1.93-1.03,2.62-2.22,2.62s-2.31-.69-2.31-2.62v-6.53c0-2.19,1.09-2.8,2.31-2.8s2.22,.61,2.22,2.8v.81h-1.01v-.66c0-1.56-.51-1.95-1.21-1.95s-1.27,.38-1.27,1.95v6.17c0,1.41,.63,1.81,1.27,1.81s1.21-.4,1.21-1.81v-1.23h1.01v1.42Z"/>
    <path class="cls-1" d="M5.79,38.61v-11.64h1.04v10.63h2.88v1.01h-3.92Z"/>
    <path class="cls-1" d="M12.97,26.81c1.2,0,2.3,.61,2.3,2.8v6.53c0,1.93-1.1,2.62-2.3,2.62s-2.39-.69-2.39-2.62v-6.53c0-2.19,1.16-2.8,2.39-2.8Zm0,10.94c.64,0,1.26-.4,1.26-1.81v-6.17c0-1.56-.55-1.95-1.26-1.95s-1.35,.38-1.35,1.95v6.17c0,1.41,.7,1.81,1.35,1.81Z"/>
    <path class="cls-1" d="M16.37,29.54c0-2.04,1.1-2.73,2.36-2.73s2.17,.78,2.17,2.8v.75h-1.04v-.6c0-1.47-.46-1.95-1.13-1.95-.74,0-1.32,.38-1.32,1.84,0,.67,.44,1.29,1.5,2.71l.35,.48c1.23,1.65,1.72,2.33,1.72,3.32,0,1.76-.95,2.59-2.25,2.59-1.21,0-2.27-.8-2.27-2.63v-.98h1.04v.78c0,1.47,.54,1.82,1.23,1.82s1.21-.46,1.21-1.59c0-.55-.32-1.1-1.41-2.56l-.4-.54c-1.2-1.62-1.76-2.44-1.76-3.52Z"/>
    <path class="cls-1" d="M26.04,32.88h-2.88v4.72h3.12v1.01h-4.17v-11.64h4.14v1.01h-3.09v3.89h2.88v1.01Z"/>
  </g>
  <g>
    <path class="cls-1" d="M5.01,3.29L1.7,0,.08,1.63l3.15,3.14s0,0,0,.01V15.77c0,.82,.67,1.49,1.49,1.49h2.76v5.03l4.19-4.87,.14-.16h3.94l5.51,5.49,1.62-1.63L12.02,10.28,5.01,3.29Z"/>
    <path class="cls-1" d="M21.73,3.29H9.26l13.54,13.5c.25-.27,.41-.63,.41-1.02V4.78c0-.82-.67-1.49-1.49-1.49Z"/>
  </g>
</svg>