<?xml version="1.0" encoding="UTF-8"?>
<svg id="_圖層_3" data-name="圖層 3" xmlns="http://www.w3.org/2000/svg" viewBox="0 0 21.13 75.77">
  <path d="M17.03,13.52c2.26-.56,4.11-1.09,4.11-1.09,0,0-1.85-.53-4.11-1.09-2.61-.65-4.6-2.74-5.14-5.37-.64-3.14-1.32-5.98-1.32-5.98,0,0-.68,2.84-1.32,5.98-.53,2.63-2.53,4.72-5.14,5.37-2.26,.56-4.11,1.09-4.11,1.09,0,0,1.85,.53,4.11,1.09,2.61,.65,4.6,2.74,5.14,5.37,.64,3.14,1.32,5.98,1.32,5.98,0,0,.68-2.84,1.32-5.98,.53-2.63,2.53-4.72,5.14-5.37Z"/>
  <path d="M17.03,38.97c2.26-.56,4.11-1.09,4.11-1.09,0,0-1.85-.53-4.11-1.09-2.61-.65-4.6-2.74-5.14-5.37-.64-3.14-1.32-5.98-1.32-5.98,0,0-.68,2.84-1.32,5.98-.53,2.63-2.53,4.72-5.14,5.37-2.26,.56-4.11,1.09-4.11,1.09,0,0,1.85,.53,4.11,1.09,2.61,.65,4.6,2.74,5.14,5.37,.64,3.14,1.32,5.98,1.32,5.98,0,0,.68-2.84,1.32-5.98,.53-2.63,2.53-4.72,5.14-5.37Z"/>
  <path d="M17.03,64.42c2.26-.56,4.11-1.09,4.11-1.09,0,0-1.85-.53-4.11-1.09-2.61-.65-4.6-2.74-5.14-5.37-.64-3.14-1.32-5.98-1.32-5.98,0,0-.68,2.84-1.32,5.98-.53,2.63-2.53,4.72-5.14,5.37-2.26,.56-4.11,1.09-4.11,1.09,0,0,1.85,.53,4.11,1.09,2.61,.65,4.6,2.74,5.14,5.37,.64,3.14,1.32,5.98,1.32,5.98,0,0,.68-2.84,1.32-5.98,.53-2.63,2.53-4.72,5.14-5.37Z"/>
</svg>