<?xml version="1.0" encoding="UTF-8"?>
<svg id="_圖層_4" data-name="圖層 4" xmlns="http://www.w3.org/2000/svg" viewBox="0 0 11.79 13.48">
  <defs>
    <style>
      .cls-1 {
        fill: #7c7c7c;
      }
    </style>
  </defs>
  <path class="cls-1" d="M10.53,2.1c.18,0,.34,.03,.49,.1s.29,.16,.4,.27,.2,.25,.27,.4,.1,.32,.1,.49v1.34c0,.13-.02,.26-.06,.38s-.1,.24-.17,.34-.16,.2-.26,.28-.22,.14-.34,.19v6.32c0,.18-.03,.34-.1,.49s-.16,.29-.27,.4-.25,.21-.4,.27-.32,.1-.49,.1H2.1c-.18,0-.34-.03-.49-.1s-.29-.16-.4-.27-.2-.25-.27-.4-.1-.32-.1-.49V5.89c-.12-.05-.23-.11-.34-.19s-.19-.17-.27-.28-.13-.22-.18-.34-.06-.25-.06-.38v-1.34c0-.18,.03-.34,.1-.49s.16-.29,.27-.4,.25-.21,.4-.27,.32-.1,.49-.1v-.86c0-.18,.04-.34,.11-.49s.17-.28,.29-.4,.26-.2,.41-.27,.32-.1,.49-.1c.05,0,.1,0,.16,.01s.12,.02,.18,.03,.12,.03,.17,.05,.1,.05,.14,.07l1.7,1.21c.13-.06,.27-.1,.41-.11s.29-.02,.42-.02h.26c.15,0,.3,0,.45,.02s.29,.05,.43,.11L8.58,.17s.09-.05,.14-.07,.11-.04,.17-.05,.12-.02,.18-.03,.11-.01,.16-.01c.18,0,.35,.03,.51,.1s.3,.16,.41,.27,.21,.25,.28,.41,.1,.33,.1,.51v.81ZM.84,4.63c0,.12,.04,.22,.12,.3s.18,.12,.3,.12h3.79V2.95H1.27c-.12,0-.22,.04-.3,.12s-.12,.18-.12,.3v1.26Zm1.26,8h2.95V5.92H1.68v6.29c0,.11,.04,.21,.13,.3s.18,.13,.3,.13ZM10.95,4.63v-1.26c0-.12-.04-.22-.12-.3s-.18-.12-.3-.12h-3.79v2.1h3.79c.12,0,.22-.04,.3-.12s.12-.18,.12-.3Zm-.84,7.58V5.92h-3.37v6.71h2.95c.12,0,.22-.04,.3-.12s.12-.18,.12-.3Z"/>
</svg>