<?xml version="1.0" encoding="utf-8"?>
<!-- Generator: Adobe Illustrator 16.0.0, SVG Export Plug-In . SVG Version: 6.00 Build 0)  -->
<!DOCTYPE svg PUBLIC "-//W3C//DTD SVG 1.1//EN" "http://www.w3.org/Graphics/SVG/1.1/DTD/svg11.dtd">
<svg version="1.1" id="圖層_1" xmlns="http://www.w3.org/2000/svg" xmlns:xlink="http://www.w3.org/1999/xlink" x="0px" y="0px"
	 width="368.383px" height="6.624px" viewBox="0 11.448 368.383 6.624" enable-background="new 0 11.448 368.383 6.624"
	 xml:space="preserve">
<path d="M358.348,14.757c-1.688-0.012-3.376-0.024-5.063-0.036c-4.541-0.033-9.082-0.064-13.622-0.098
	c-6.615-0.047-13.23-0.096-19.846-0.143c-7.912-0.057-15.824-0.113-23.734-0.171c-8.431-0.06-16.859-0.12-25.289-0.181
	c-8.169-0.058-16.338-0.117-24.507-0.176c-3.293-0.023-6.586-0.047-9.879-0.071c-2.021-0.014-7.467,1.019-8.66-1.084
	c-0.188,0.553-0.747,0.957-1.331,0.96c-0.584,0.004-1.147-0.394-1.343-0.944c-0.47,0.689-1.322,1.098-2.153,1.031
	c-1.346-0.105-2.276-1.49-3.116-2.397l-1.905,1.92c-0.095,0.094-0.189,0.189-0.304,0.26c-0.87,0.535-3.052,0.099-4.042,0.091
	c-6.575-0.047-13.097,0.011-19.631-0.929c-1.494-0.215-4.854-0.961-4.854-0.961c-0.162,1.133-2.977,2.299-4.696,2.931
	c1.721,0.633,4.534,1.798,4.696,2.932c0,0,3.36-0.747,4.854-0.962c6.534-0.938,13.056-0.882,19.631-0.929
	c0.99-0.007,3.172-0.444,4.042,0.091c0.113,0.07,0.209,0.166,0.304,0.261l1.905,1.92c0.84-0.908,1.771-2.291,3.116-2.398
	c0.831-0.066,1.685,0.342,2.153,1.031c0.194-0.55,0.759-0.947,1.343-0.944c0.584,0.004,1.144,0.408,1.331,0.96
	c1.193-2.103,6.641-1.07,8.66-1.084c3.293-0.023,6.586-0.048,9.879-0.071c8.169-0.059,16.338-0.116,24.507-0.176
	c8.43-0.06,16.858-0.121,25.289-0.181c7.91-0.058,15.822-0.114,23.734-0.171c6.614-0.047,13.229-0.095,19.846-0.143
	c4.54-0.031,9.081-0.064,13.622-0.098c1.688-0.012,3.375-0.024,5.063-0.036c-0.088-0.001-0.176-0.001-0.264-0.002
	C358.172,14.758,358.26,14.758,358.348,14.757 M196.954,14.761c-0.857,0-1.646,0.285-2.45,0.542
	c-0.88,0.281-1.763,0.555-2.635,0.854c-0.579,0.197-1.305,0.482-1.932,0.322c-0.281-0.072-0.485-0.226-0.545-0.52
	c-0.006-0.023,0.001-0.372,0.021-0.364c-0.834-0.292-1.688-0.557-2.532-0.835c0.002-0.001,0.004-0.001,0.006-0.002
	c-0.002-0.001-0.004-0.001-0.006-0.002c0.845-0.278,1.698-0.543,2.532-0.834c-0.021,0.007-0.026-0.342-0.021-0.365
	c0.06-0.294,0.264-0.447,0.545-0.519c0.627-0.161,1.353,0.124,1.932,0.321c0.872,0.301,1.755,0.574,2.635,0.855
	c0.804,0.257,1.593,0.541,2.45,0.541c-0.012,0-0.021,0.002-0.032,0.002C196.933,14.759,196.943,14.761,196.954,14.761"/>
<path d="M10.298,14.759c-0.088,0.001-0.175,0.001-0.263,0.002c1.687,0.012,3.375,0.024,5.063,0.036
	c4.54,0.033,9.081,0.065,13.622,0.098c6.615,0.047,13.23,0.096,19.846,0.143c7.911,0.057,15.823,0.113,23.734,0.171
	c8.43,0.06,16.859,0.121,25.289,0.181c8.169,0.06,16.338,0.117,24.507,0.176c3.293,0.023,6.585,0.048,9.878,0.071
	c2.021,0.014,7.468-1.019,8.662,1.084c0.187-0.552,0.747-0.956,1.33-0.96c0.584-0.004,1.148,0.395,1.343,0.944
	c0.47-0.689,1.322-1.098,2.154-1.031c1.344,0.107,2.275,1.49,3.116,2.398l1.905-1.921c0.095-0.094,0.189-0.189,0.304-0.26
	c0.868-0.535,3.051-0.098,4.042-0.091c6.574,0.047,13.096-0.01,19.631,0.929c1.493,0.215,4.854,0.962,4.854,0.962
	c0.163-1.134,2.978-2.3,4.697-2.932c-1.72-0.632-4.534-1.798-4.697-2.932c0,0-3.36,0.747-4.854,0.962
	c-6.535,0.938-13.057,0.882-19.631,0.929c-0.991,0.007-3.174,0.444-4.042-0.091c-0.114-0.07-0.209-0.166-0.304-0.26l-1.905-1.92
	c-0.841,0.907-1.772,2.291-3.116,2.397c-0.832,0.066-1.685-0.342-2.154-1.031c-0.194,0.551-0.759,0.948-1.343,0.944
	c-0.583-0.004-1.144-0.408-1.33-0.96c-1.194,2.103-6.642,1.07-8.662,1.084c-3.293,0.024-6.585,0.048-9.878,0.071
	c-8.169,0.059-16.338,0.116-24.507,0.176c-8.43,0.06-16.859,0.121-25.289,0.181c-7.911,0.058-15.823,0.114-23.734,0.171
	c-6.615,0.047-13.23,0.096-19.846,0.143c-4.541,0.033-9.082,0.064-13.622,0.098c-1.688,0.012-3.376,0.024-5.063,0.036
	C10.124,14.758,10.21,14.758,10.298,14.759 M171.46,14.759c-0.012,0-0.021-0.002-0.032-0.002c0.858,0,1.646-0.284,2.45-0.541
	c0.88-0.282,1.762-0.556,2.636-0.855c0.578-0.197,1.303-0.482,1.93-0.321c0.282,0.071,0.487,0.225,0.545,0.519
	c0.006,0.023-0.001,0.372-0.021,0.365c0.835,0.291,1.688,0.556,2.532,0.834c-0.002,0.001-0.004,0.001-0.006,0.002
	c0.002,0.001,0.004,0.001,0.006,0.002c-0.844,0.278-1.697,0.543-2.532,0.834c0.02-0.007,0.026,0.342,0.021,0.365
	c-0.058,0.294-0.263,0.447-0.545,0.519c-0.627,0.161-1.352-0.124-1.93-0.321c-0.874-0.3-1.756-0.573-2.636-0.855
	c-0.805-0.257-1.592-0.541-2.45-0.541C171.439,14.761,171.448,14.759,171.46,14.759"/>
</svg>
