<?xml version="1.0" encoding="UTF-8"?>
<svg xmlns="http://www.w3.org/2000/svg" viewBox="0 0 50.18 57.07">
  <defs>
    <style>
      .cls-1 {
        fill: #fff;
      }
    </style>
  </defs>
  <g id="_圖層_4_拷貝" data-name="圖層 4 拷貝">
    <path class="cls-1" d="M47.6,22.25c-2.99-1.65-6.17-2.48-9.47-2.48-1.66,0-3.25,.17-4.77,.47,0-1.55-.45-2.99-1.2-4.23h3.01c1.66,0,3-1.34,3-3v-.86c0-.83-.33-1.58-.88-2.12,.42-.52,.67-1.17,.67-1.89v-.86c0-.55-.15-1.07-.41-1.51,.37-.5,.59-1.12,.59-1.79v-.86c0-1.66-1.34-3-3-3h-3.51c-.48,0-.93,.12-1.34,.33-.58-.21-1.21-.33-1.82-.33h-1.79c-.45,0-.87,.1-1.25,.28-.64-.27-1.33-.41-2.03-.41s-1.4,.13-2.04,.4c-.38-.17-.79-.27-1.23-.27h-1.3c-.42,0-.82,.09-1.19,.25-.37-.16-.77-.25-1.19-.25h-1.3c-1.66,0-3,1.34-3,3V13.01c0,1.66,1.34,3,3,3h.86c.41,0,.81-.08,1.16-.23h.94s.04,0,.05,.02c-.83,1.28-1.32,2.81-1.33,4.44-1.52-.3-3.11-.47-4.77-.47-3.3,0-6.48,.84-9.47,2.48-1.99,1.1-2.99,3.41-2.43,5.62,.56,2.21,2.55,3.75,4.82,3.76,4.06,.02,8.86,4.18,11.95,10.35,.81,1.61,1.49,3.34,2.03,5.13,.54,1.78,.93,3.65,1.17,5.57,.31,2.5,2.44,4.39,4.96,4.39s4.65-1.88,4.96-4.39c.24-1.92,.63-3.8,1.17-5.57,.54-1.79,1.23-3.52,2.03-5.13,3.09-6.18,7.89-10.34,11.95-10.35,2.28,0,4.26-1.56,4.82-3.76,.56-2.21-.44-4.52-2.43-5.62Z"/>
  </g>
  <g id="_圖層_3_拷貝" data-name="圖層 3 拷貝">
    <g>
      <circle cx="25.09" cy="20.28" r="3.27"/>
      <path d="M38.13,24.76c-5.15,0-9.78,1.81-13.04,6.27-3.25-4.46-7.88-6.27-13.04-6.27-2.51,0-4.89,.67-7.06,1.86,6.06,.02,12.4,5.11,16.4,13.12,.91,1.83,1.71,3.81,2.35,5.92,.65,2.15,1.09,4.3,1.35,6.41,.26-2.11,.69-4.25,1.35-6.41,.64-2.11,1.43-4.09,2.35-5.92,4-8,10.34-13.09,16.4-13.12-2.16-1.19-4.55-1.86-7.06-1.86Z"/>
    </g>
    <g>
      <path d="M19.27,4.95h-.05l-.98,7.83h-1.16l-1.05-7.83h-.03V13.01h-.86V3.13h1.3l1.2,8.44h.03l1.16-8.44h1.3V13.01h-.86V4.95Z"/>
      <path d="M23.4,3c1.01,0,1.95,.52,1.95,2.38v5.54c0,1.64-.94,2.22-1.95,2.22s-2.03-.58-2.03-2.22V5.38c0-1.86,.99-2.38,2.03-2.38Zm0,9.28c.55,0,1.07-.34,1.07-1.53V5.51c0-1.33-.47-1.65-1.07-1.65s-1.14,.33-1.14,1.65v5.24c0,1.2,.6,1.53,1.14,1.53Z"/>
      <path d="M30.49,13.01h-.94l-.75-4.41c-.18,.03-.38,.04-.57,.04h-.66v4.37h-.88V3.13h1.79c.83,0,1.96,.52,1.96,1.69v2.08c0,.68-.34,1.16-.86,1.43l.91,4.68Zm-2.18-5.23c.6,0,1.27-.2,1.27-1.13v-1.61c0-.94-.56-1.05-1.27-1.05h-.74v3.8h.74Z"/>
      <path d="M34.96,8.15h-2.44v4h2.65v.86h-3.54V3.13h3.51v.86h-2.63v3.3h2.44v.86Z"/>
    </g>
  </g>
</svg>