<?xml version="1.0" encoding="UTF-8"?>
<svg xmlns="http://www.w3.org/2000/svg" viewBox="0 0 50.18 57.07">
  <defs>
    <style>
      .cls-1 {
        fill: #fff;
      }
    </style>
  </defs>
  <g id="_圖層_3_拷貝" data-name="圖層 3 拷貝">
    <g>
      <path class="cls-1" d="M25.09,15.51c-2.63,0-4.77,2.14-4.77,4.77s2.14,4.77,4.77,4.77,4.77-2.14,4.77-4.77-2.14-4.77-4.77-4.77Zm0,6.53c-.97,0-1.77-.79-1.77-1.77s.79-1.77,1.77-1.77,1.77,.79,1.77,1.77-.79,1.77-1.77,1.77Z"/>
      <path class="cls-1" d="M45.91,25.31c-2.46-1.36-5.08-2.05-7.78-2.05-5.33,0-9.8,1.86-13.04,5.4-3.23-3.54-7.7-5.4-13.04-5.4-2.7,0-5.32,.69-7.78,2.05-.6,.33-.9,1.02-.73,1.68s.76,1.13,1.45,1.13c5.43,.02,11.34,4.85,15.06,12.29,.89,1.79,1.65,3.7,2.25,5.68,.59,1.96,1.03,4.03,1.29,6.16,.09,.75,.73,1.32,1.49,1.32s1.4-.56,1.49-1.32c.26-2.12,.7-4.19,1.29-6.16,.6-1.98,1.36-3.89,2.25-5.68,3.72-7.44,9.63-12.27,15.06-12.29,.68,0,1.28-.47,1.45-1.13s-.13-1.35-.73-1.68Zm-18.46,13.76c-.93,1.85-1.72,3.83-2.35,5.87-.63-2.04-1.42-4.01-2.35-5.87-3.09-6.17-7.48-10.67-12.17-12.72,.49-.06,.99-.09,1.49-.09,5.11,0,9.09,1.9,11.82,5.66,.56,.78,1.86,.78,2.42,0,2.74-3.75,6.71-5.66,11.82-5.66,.5,0,1,.03,1.49,.09-4.7,2.05-9.09,6.54-12.17,12.72Z"/>
      <path class="cls-1" d="M15.15,14.51h.86c.31,0,.6-.09,.83-.25,.08,.01,.16,.02,.24,.02h1.16c.07,0,.14,0,.2-.01,.24,.16,.52,.25,.83,.25h.86c.46,0,.87-.22,1.15-.55,.62,.45,1.37,.68,2.13,.68s1.5-.24,2.11-.7c.27,.34,.69,.57,1.17,.57h.88c.38,0,.73-.14,1-.38,.27,.24,.62,.38,.99,.38h.94c.2,0,.39-.04,.56-.12,.18,.08,.37,.12,.58,.12h3.54c.83,0,1.5-.67,1.5-1.5v-.86c0-.83-.67-1.5-1.5-1.5h-1.15v-1h.94c.83,0,1.5-.67,1.5-1.5v-.86c0-.83-.67-1.5-1.5-1.5h-.94v-.3h1.13c.83,0,1.5-.67,1.5-1.5v-.86c0-.83-.67-1.5-1.5-1.5h-3.51c-.48,0-.9,.23-1.18,.58-.59-.37-1.29-.58-1.98-.58h-1.79c-.47,0-.89,.22-1.16,.56-.62-.47-1.37-.69-2.11-.69s-1.51,.21-2.13,.67c-.28-.33-.68-.54-1.14-.54h-1.3c-.48,0-.91,.23-1.19,.59-.28-.36-.71-.59-1.19-.59h-1.3c-.83,0-1.5,.67-1.5,1.5V13.01c0,.83,.67,1.5,1.5,1.5Z"/>
    </g>
  </g>
  <g id="_圖層_3_拷貝_2" data-name="圖層 3 拷貝 2">
    <g>
      <circle cx="25.09" cy="20.28" r="3.27"/>
      <path d="M38.13,24.76c-5.15,0-9.78,1.81-13.04,6.27-3.25-4.46-7.88-6.27-13.04-6.27-2.51,0-4.89,.67-7.06,1.86,6.06,.02,12.4,5.11,16.4,13.12,.91,1.83,1.71,3.81,2.35,5.92,.65,2.15,1.09,4.3,1.35,6.41,.26-2.11,.69-4.25,1.35-6.41,.64-2.11,1.43-4.09,2.35-5.92,4-8,10.34-13.09,16.4-13.12-2.16-1.19-4.55-1.86-7.06-1.86Z"/>
    </g>
    <g>
      <path d="M19.27,4.95h-.05l-.98,7.83h-1.16l-1.05-7.83h-.03V13.01h-.86V3.13h1.3l1.2,8.44h.03l1.16-8.44h1.3V13.01h-.86V4.95Z"/>
      <path d="M23.4,3c1.01,0,1.95,.52,1.95,2.38v5.54c0,1.64-.94,2.22-1.95,2.22s-2.03-.58-2.03-2.22V5.38c0-1.86,.99-2.38,2.03-2.38Zm0,9.28c.55,0,1.07-.34,1.07-1.53V5.51c0-1.33-.47-1.65-1.07-1.65s-1.14,.33-1.14,1.65v5.24c0,1.2,.6,1.53,1.14,1.53Z"/>
      <path d="M30.49,13.01h-.94l-.75-4.41c-.18,.03-.38,.04-.57,.04h-.66v4.37h-.88V3.13h1.79c.83,0,1.96,.52,1.96,1.69v2.08c0,.68-.34,1.16-.86,1.43l.91,4.68Zm-2.18-5.23c.6,0,1.27-.2,1.27-1.13v-1.61c0-.94-.56-1.05-1.27-1.05h-.74v3.8h.74Z"/>
      <path d="M34.96,8.15h-2.44v4h2.65v.86h-3.54V3.13h3.51v.86h-2.63v3.3h2.44v.86Z"/>
    </g>
  </g>
</svg>