<?xml version="1.0" encoding="UTF-8"?>
<svg id="_圖層_3" data-name="圖層 3" xmlns="http://www.w3.org/2000/svg" viewBox="0 0 26.25 38.76">
  <defs>
    <style>
      .cls-1 {
        fill: #fff;
      }
    </style>
  </defs>
  <path class="cls-1" d="M21.73,3.29H4.72c-.82,0-1.49,.67-1.49,1.49V15.77c0,.82,.67,1.49,1.49,1.49h2.76v5.03l4.33-5.03h9.91c.82,0,1.49-.67,1.49-1.49V4.78c0-.82-.67-1.49-1.49-1.49Z"/>
  <g>
    <path class="cls-1" d="M4.54,26.81c1.2,0,2.3,.61,2.3,2.8v6.53c0,1.93-1.1,2.62-2.3,2.62s-2.39-.69-2.39-2.62v-6.53c0-2.19,1.16-2.8,2.39-2.8Zm0,10.94c.64,0,1.26-.4,1.26-1.81v-6.17c0-1.56-.55-1.95-1.26-1.95s-1.35,.38-1.35,1.95v6.17c0,1.41,.7,1.81,1.35,1.81Z"/>
    <path class="cls-1" d="M12.67,28.93v2.27c0,1.41-.92,2.28-2.36,2.28h-1.01v5.13h-1.04v-11.64h2.05c1.29,0,2.36,.69,2.36,1.96Zm-2.51,3.54c1.03,0,1.5-.35,1.5-1.58v-1.62c0-1.15-.51-1.29-1.5-1.29h-.86v4.49h.86Z"/>
    <path class="cls-1" d="M17.72,32.88h-2.88v4.72h3.13v1.01h-4.17v-11.64h4.14v1.01h-3.09v3.89h2.88v1.01Z"/>
    <path class="cls-1" d="M22.94,36.62h.03v-9.65h1.01v11.64h-1.52l-2.19-9.65h-.03v9.65h-1.01v-11.64h1.52l2.19,9.65Z"/>
  </g>
</svg>