<?xml version="1.0" encoding="UTF-8"?>
<svg xmlns="http://www.w3.org/2000/svg" viewBox="0 0 52.6 24.1">
  <defs>
    <style>
      .cls-1 {
        fill: #fff;
      }
    </style>
  </defs>
  <g id="_圖層_4" data-name="圖層 4">
    <path class="cls-1" d="M52.6,10.22H29.69s0-.07,.03-.11c.78-1.29,1.49-2.23,1.61-2.38,.08-.09,.13-.2,.13-.33,0-.28-.22-.5-.5-.5h0c-.12,0-.22,.04-.31,.11-.05,.04-.99,.76-2.31,1.57-.06,.03-.12,.05-.18,.05-.15,0-.32-.1-.36-.3-.72-4.06-.99-7.82-1-7.86-.02-.26-.24-.46-.5-.46s-.48,.2-.5,.46c0,.04-.28,3.8-1,7.86-.04,.2-.21,.3-.36,.3-.06,0-.12-.02-.18-.05-1.36-.83-2.3-1.56-2.31-1.57-.09-.07-.2-.11-.31-.11-.13,0-.26,.05-.35,.15-.18,.18-.2,.46-.04,.66,0,0,.78,1,1.63,2.41,.02,.04,.02,.07,.03,.11H0v3.66H22.91s0,.07-.03,.11c-.85,1.41-1.62,2.4-1.63,2.41-.15,.2-.14,.48,.04,.66,.1,.1,.23,.15,.35,.15,.11,0,.22-.03,.31-.11,0,0,.96-.74,2.31-1.57,.06-.03,.12-.05,.18-.05,.15,0,.32,.1,.36,.3,.72,4.06,.99,7.82,1,7.86,.02,.26,.24,.46,.5,.46s.48-.2,.5-.46c0-.04,.28-3.8,1-7.86,.04-.2,.21-.3,.36-.3,.06,0,.12,.02,.18,.05,1.36,.83,2.3,1.56,2.31,1.57,.09,.07,.2,.11,.31,.11,.13,0,.26-.05,.35-.15,.18-.18,.2-.46,.04-.66,0,0-.77-1-1.63-2.41-.02-.04-.02-.07-.03-.11h22.91v-3.66Zm-28.59,4.88c-.17,.11-.34,.21-.5,.31,.16-.1,.33-.21,.5-.31,.07-.04,.14-.07,.21-.09-.07,.02-.14,.05-.21,.09Zm4.59,0c-.07-.04-.14-.07-.21-.09,.07,.02,.14,.05,.21,.09,.17,.11,.34,.21,.5,.31-.16-.1-.33-.21-.5-.31Zm-5.28-.85c.07-.12,.1-.24,.11-.37h0c-.01,.12-.05,.25-.12,.37Z"/>
  </g>
  <g id="_圖層_3_拷貝_2" data-name="圖層 3 拷貝 2">
    <path d="M29.86,12.96c3.34-.66,6.29-.91,6.29-.91,0,0-2.95-.25-6.29-.91-.58-.12-.88-.78-.57-1.29,.88-1.45,1.66-2.46,1.66-2.46,0,0-.96,.75-2.36,1.6-.51,.31-1.19,0-1.29-.59-.73-4.14-1-7.91-1-7.91,0,0-.27,3.77-1,7.91-.11,.59-.78,.91-1.29,.59-1.4-.86-2.36-1.6-2.36-1.6,0,0,.78,1,1.66,2.46,.31,.51,.01,1.17-.57,1.29-3.34,.66-6.29,.91-6.29,.91,0,0,2.95,.25,6.29,.91,.58,.12,.88,.78,.57,1.29-.88,1.45-1.66,2.46-1.66,2.46,0,0,.96-.75,2.36-1.6,.51-.31,1.19,0,1.29,.59,.73,4.14,1,7.91,1,7.91,0,0,.27-3.77,1-7.91,.11-.59,.78-.91,1.29-.59,1.4,.86,2.36,1.6,2.36,1.6,0,0-.78-1-1.66-2.46-.31-.51-.01-1.17,.57-1.29Z"/>
    <circle cx="7.02" cy="12.05" r="1.31"/>
    <circle cx="45.57" cy="12.05" r="1.31"/>
  </g>
</svg>