<?xml version="1.0" encoding="UTF-8"?>
<svg id="_圖層_7" data-name="圖層 7" xmlns="http://www.w3.org/2000/svg" viewBox="0 0 160.87 22.69">
  <defs>
    <style>
      .cls-1 {
        fill: #231815;
      }
    </style>
  </defs>
  <path class="cls-1" d="M71.28,20.95h-6.91c-.33,0-.88,.08-1.64,.24-.76,.16-1.23,.3-1.43,.42-.19,.12-.52,.37-.98,.74V8.51h3.32c1.05-1.28,1.66-2.42,1.81-3.42h-7.14v-.55l4.17-.02v-1.75c0-.32-.21-.57-.62-.76-.41-.19-.96-.29-1.66-.29,.72-.13,1.47-.32,2.24-.55,.75-.25,1.23-.43,1.47-.55l.5-.25,1.85,1.42v1.82c-.36,0-.88,.09-1.56,.26-.68,.17-1.2,.39-1.56,.64h6.79c.13-.28,.19-.79,.19-1.52,0-.96-.6-1.45-1.81-1.45,.72-.12,1.44-.3,2.16-.55,.54-.18,.96-.36,1.27-.52l.46-.25,2.01,1.42c0,1.38-.99,2.33-2.97,2.87h5.59v.55h-6.75c-1.65,1.51-3.43,2.66-5.36,3.44h10.61v12.44c-.33,0-.88,.08-1.64,.24-.76,.16-1.23,.3-1.43,.42-.19,.12-.52,.37-.98,.74v-1.4Zm-5.05-11.89c-1.13,.23-1.75,.63-1.85,1.2v2.17h6.91v-2.24c-.26-.66-.8-1.04-1.62-1.12h-3.43Zm5.05,3.91h-6.91v2.94h6.91v-2.94Zm0,3.49h-6.91v2.74c.15,.4,.35,.68,.6,.83,.24,.16,.66,.28,1.25,.36h3.2c.62-.08,1-.18,1.16-.3,.36-.22,.59-.52,.69-.9v-2.74Z"/>
  <path class="cls-1" d="M92.29,17.61c-.28,.75-1.04,1.58-2.26,2.51-1.22,.92-3.02,1.7-5.38,2.33l-.12-.02c2.01-1.41,3.18-2.74,3.51-3.99l.23-.82h4.01Zm8.14-12.26v10.67c-.57,0-1.27,.1-2.1,.31-.84,.21-1.42,.51-1.76,.91l-.23,.2v-1.12h-5.63c-.57,0-1.27,.1-2.1,.31-.84,.21-1.42,.51-1.76,.91l-.23,.2V5.35h2.97c.85-1.11,1.38-2.33,1.58-3.66h-6.25v-.52h17.21v.52h-7.41c-.75,1.48-1.93,2.7-3.55,3.66h9.26Zm-9.72,3.51h5.63v-1.79c-.21-.51-.53-.84-.98-.98-.45-.14-.74-.21-.87-.21h-1.93c-.8,.13-1.31,.35-1.52,.65-.22,.3-.33,.48-.33,.55v1.79Zm0,3.24h5.63v-2.69h-5.63v2.69Zm3.78,3.69c1.23-.17,1.85-.56,1.85-1.2v-1.94h-5.63v1.94c.31,.8,.93,1.2,1.85,1.2h1.93Zm.39,1.82h3.97l.23,.82c.33,1.26,1.49,2.59,3.47,3.99l-.08,.02c-2.37-.63-4.18-1.42-5.44-2.37-1.26-.95-1.98-1.73-2.16-2.34v-.12Z"/>
</svg>