<?xml version="1.0" encoding="UTF-8"?>
<svg id="_圖層_3" data-name="圖層 3" xmlns="http://www.w3.org/2000/svg" viewBox="0 0 160.87 22.69">
  <path d="M75.02,5.59h-7.54c-.51,1.17-1.65,2.33-2.54,2.65-.16,.06-.32-.11-.21-.28,.61-.85,.97-1.53,1.3-2.37h-8.71c-.18,0-.32-.14-.32-.32s.14-.32,.32-.32h11.56c1.06-1.01,1.75-2.25,2.36-3.59,.35-.74,1.45-.28,1.15,.51-.43,1.14-1.47,2.34-2.67,3.08h5.27c.46,0,.76-.18,1.04-.18,.3,0,.51,.21,.51,.51s-.21,.51-.51,.51c-.28,0-.58-.18-1.01-.18Zm-14.84,2.67c0-.37,.25-.62,.62-.62s.62,.25,.62,.62v.25h10.88v-.28c0-.37,.25-.62,.62-.62s.62,.25,.62,.62v12.86c0,.37-.25,.62-.62,.62s-.62-.25-.62-.62v-1.52h-10.88v1.63c0,.37-.25,.62-.62,.62s-.62-.25-.62-.62V8.26Zm12.13,3.64v-2.78h-10.88v2.78h10.88Zm0,3.45v-2.85h-10.88v2.85h10.88Zm0,3.64v-3.04h-10.88v3.04h10.88ZM61.74,1.15c.99,.35,2.53,1.27,2.95,2.48,.28,.85-.71,1.38-1.2,.53-.62-1.08-1.13-1.91-1.93-2.72-.13-.13,0-.36,.18-.3Z"/>
  <path d="M84.53,21.47c2.92-.78,5.43-1.96,7.59-3.96,.69-.64,1.59,.23,.88,.94-2,2-5.5,3.11-8.4,3.38-.25,.02-.3-.31-.07-.37Zm.94-18.87h16.8c.48,0,.76-.18,1.06-.18s.53,.21,.53,.51-.22,.51-.53,.51-.58-.16-1.01-.16h-6.9c-.48,1.13-1.48,2.07-2.39,2.53-.18,.09-.38-.13-.28-.28,.51-.7,.86-1.51,1.15-2.25h-8.42c-.18,0-.32-.14-.32-.35,0-.18,.14-.32,.32-.32Zm2.37,3.38c0-.37,.25-.62,.62-.62s.62,.25,.62,.62v.23h10.56v-.25c0-.37,.25-.62,.62-.62s.62,.25,.62,.62v11.14c0,.37-.25,.62-.62,.62s-.62-.25-.62-.62v-.46h-10.56v.71c0,.37-.25,.62-.62,.62s-.62-.25-.62-.62V5.98Zm11.8,3.47v-2.65h-10.56v2.65h10.56Zm0,3.24v-2.65h-10.56v2.65h10.56Zm0,3.34v-2.74h-10.56v2.74h10.56Zm-3.84,1.4c2.46,.32,6.21,1.77,7.66,3.11,.69,.69-.05,1.61-.76,1.1-2.03-1.45-4.62-2.88-7-3.84-.21-.08-.15-.4,.09-.37Z"/>
</svg>