<?xml version="1.0" encoding="UTF-8"?>
<svg id="_圖層_8" data-name="圖層 8" xmlns="http://www.w3.org/2000/svg" viewBox="0 0 160.87 22.69">
  <defs>
    <style>
      .cls-1 {
        fill: #231815;
      }
    </style>
  </defs>
  <path class="cls-1" d="M38.86,3.66l-.81,.35c-.51,.27-.82,.47-.93,.6-.13,.17-.19,.45-.19,.85,0,.28,.09,.53,.27,.75l1.08,.5,.58,1.1c-.59,.08-1.04,.22-1.35,.4-.41,.22-.72,.52-.93,.9l-.31,1.1-.19-.7c-.44-1.31-.96-2.14-1.58-2.49-.44-.23-1.21-.35-2.31-.35,1.26-.23,2.15-.45,2.66-.65,.57-.27,.84-.63,.81-1.1-.1-.96-.49-1.63-1.16-1.99-.44-.27-1.13-.4-2.08-.4,.64-.13,1.3-.31,1.97-.52,.67-.22,1.16-.4,1.47-.55l.5-.22,1.93,1.4,.58,1.05Zm-5.59,8.13c.64-.13,1.3-.31,1.97-.52,.82-.3,1.31-.48,1.47-.55l.5-.22,1.81,1.4v2.19c0,1.78-.5,3.42-1.49,4.92-.99,1.5-2.41,2.66-4.26,3.45l-.08-.1c.87-1.1,1.45-2.11,1.74-3.04,.28-.93,.42-2.38,.42-4.34v-2.09c0-.32-.2-.58-.6-.79-.4-.21-.89-.31-1.49-.31Zm7.02-9.52h11.34v.52h-4.21v5.24h5.48v.55h-5.48v3.51h4.32v9.07c-.31,0-.8,.08-1.49,.24-.68,.16-1.11,.3-1.27,.44-.17,.13-.47,.37-.91,.72v-1.4h-4.24c-.31,0-.8,.08-1.49,.24-.68,.16-1.11,.3-1.27,.44-.17,.13-.47,.37-.91,.72V12.09h3.59v-3.51h-4.71v-.55h4.71V2.79h-3.47v-.52Zm6.13,18.35c.51-.08,.86-.18,1.04-.3,.31-.22,.51-.52,.62-.9v-5.63c-.26-.66-.73-1.05-1.43-1.15h-1.16c-.72,.17-1.18,.41-1.39,.72-.13,.2-.22,.36-.27,.47v5.58c.15,.4,.31,.66,.46,.8,.28,.2,.68,.33,1.2,.4h.93Z"/>
  <path class="cls-1" d="M74.76,22.69V8.48c-.21-.66-.57-1.05-1.08-1.15h-.31v6.91c0,1.78-.37,3.42-1.1,4.92-.73,1.5-1.79,2.66-3.18,3.45v-.07c.23-.42,.44-.82,.62-1.22h-10.73v-.55h4.4v-2.44h-3.82v-.55h3.82v-2.49h-1.16c-.33,0-.69,.08-1.08,.25-.59,.22-1.04,.55-1.35,1l-.12,.17V7.73h3.7v-1.94h-4.4v-.55h4.4v-1.67c-1.36,.18-2.68,.27-3.94,.27,4.17-.83,6.3-1.64,6.4-2.42,.03-.2-.05-.32-.23-.35l-.58-.05c1.29-.18,2.08-.32,2.39-.4l2.51-.62c-.46,1.43-1.85,2.47-4.17,3.12v2.12h4.05v.55h-4.05v1.94h3.67v7.55c-.36,0-.75,.08-1.16,.25-.64,.23-1.08,.54-1.31,.92l-.08,.22v-1.42h-1.12v2.52h3.67v.55h-3.67v2.44h4.17c.15-.43,.3-.85,.42-1.25,.23-.91,.33-2.38,.31-4.39V7.33h-1.58v-.52h1.58V2.77c0-.32-.14-.57-.42-.76-.28-.19-.67-.29-1.16-.29,1-.28,1.86-.66,2.58-1.12l.35-.22,1.35,1.42V6.81h4.05v14.46c-.36,0-.75,.08-1.16,.25-.69,.27-1.16,.6-1.39,1l-.12,.17Zm-11.38-14.43c-.41,.12-.66,.25-.73,.4l-.42,.65v1.62h1.16v-2.67Zm-1.16,5.46c.18,.57,.57,.91,1.16,1.05v-3.29h-1.16v2.24Zm4.67-4.44c-.21-.58-.58-.93-1.12-1.05v2.69h1.12v-1.65Zm-1.12,5.46c.23,0,.48-.12,.73-.37,.05-.07,.15-.26,.31-.57l.08-.1v-2.22h-1.12v3.27Z"/>
  <path class="cls-1" d="M90.24,8.8l.46,1.15c-.13,.02-.33,.11-.62,.27-.23,.15-.39,.38-.46,.7l-.23,1.1-.04-.35c-.1-.53-.27-1.08-.5-1.65v11.09c-.13-.02-.37,.06-.73,.22-.36,.15-.6,.3-.73,.45l-.58,.72,.08-9.12c-.64,1.81-1.57,3.11-2.78,3.89l-.12-.07c.59-.85,1.05-1.94,1.39-3.29,.36-1.65,.55-3.18,.58-4.61l.08-3.51h-1.39v-.55h2.16V2.74c0-.3-.12-.55-.35-.75s-.55-.3-.96-.3c.87-.3,1.57-.66,2.08-1.1l.35-.25,.93,1.42v3.47h1.54v.55h-1.54v1l1.39,2.02Zm5.71-6.73l.35,8.85c-.46,0-.99,.12-1.58,.35-.15,.07-.32,.19-.5,.37-.15,.15-.27,.31-.35,.47l-.08,.17v-1.4h-1.27v8.13h1.7v-3.54c0-.38-.1-.73-.31-1.05-.18-.3-.42-.45-.73-.45,.36-.18,.75-.36,1.16-.52,.26-.1,.53-.27,.81-.52l.23-.2,.96,1.4v5.24c-.08,0-.44,.12-1.08,.37-.26,.1-.45,.22-.58,.37-.23,.27-.36,.43-.39,.5l-.08,.2v-1.3h-1.7s-.42,.12-1.2,.37c-.15,.05-.33,.17-.54,.37-.15,.13-.26,.3-.31,.5l-.15,.17V2.07h5.63Zm-2.16,1.17c0-.18-.06-.32-.19-.42l-.31-.25h-.19c-.18,0-.31,.08-.39,.25l-.19,.37v3.12h1.27V3.24Zm0,3.61h-1.27v3.49h1.27v-3.49Zm8.14,4.39c-.15,.88-.31,1.57-.46,2.07-.46,1.65-1.12,3.18-1.97,4.61-1.21,2.06-2.6,3.51-4.17,4.36l-.08-.07c.9-1.43,1.44-2.29,1.62-2.57,.46-.78,.94-1.87,1.43-3.27,.51-1.46,.89-2.98,1.12-4.56l.08-.57h-3.05v-.55h3.4V2.59h-3.4v-.55h7.1v.55h-1.54V10.69h1.77v.55h-1.85Zm-4.98-8.65h2.01V10.69h-2.01V2.59Zm6.87,18.05v.55h-3.94V12.99l.08-1.82,2.08,.05v8.23c.1,.4,.22,.68,.35,.85,.08,.08,.17,.15,.29,.21,.12,.06,.21,.1,.29,.11l.12,.02h.73Z"/>
  <path class="cls-1" d="M111.24,1.35h17.05v.52h-4.63v2.47h4.63v6.28c-.15,0-.69,.12-1.62,.35-.33,.08-.63,.22-.89,.4-.31,.22-.49,.37-.54,.45l-.12,.2v-2.29h-7.1v2.39h10.65v.52h-10.65v4.79h3.63c.03-.32,.05-.66,.08-1.05v-1.12c0-.32-.22-.57-.66-.76-.44-.19-.99-.29-1.66-.29,.72-.13,1.45-.31,2.18-.54s1.28-.42,1.64-.59l.58-.22,1.97,1.42c0,1.43-.12,2.48-.35,3.14h2.2v.55h-2.43c-.87,1.78-2.8,3.24-5.79,4.39l-.12-.07c.8-.93,1.36-1.67,1.7-2.23,.33-.56,.54-1.25,.62-2.08h-3.59c-.57,0-1.31,.12-2.24,.35-.33,.08-.66,.22-.96,.4-.41,.25-.64,.4-.69,.45l-.19,.2v-6.73h-2.51v-.52h2.51v-2.39h-2.7V4.34h4.63V1.87h-4.63v-.52Zm4.13,3.51c-.26,0-.45,.08-.58,.25l-.39,.42v2.99c.15,.23,.3,.37,.42,.4l.66,.25h.39V4.86h-.5Zm5.13-.52V1.87h-1.47v2.47h1.47Zm-1.47,4.84h1.47V4.86h-1.47v4.31Zm6.1-.65v-2.99c0-.18-.12-.32-.35-.42l-.62-.25h-.5v4.31h.42c.28,0,.5-.08,.66-.25l.39-.4Z"/>
</svg>