<?xml version="1.0" encoding="UTF-8"?>
<svg id="_圖層_3_拷貝_2" data-name="圖層 3 拷貝 2" xmlns="http://www.w3.org/2000/svg" viewBox="0 0 160.87 22.69">
  <path d="M15.66,3.82c0-.33,.25-.58,.6-.58s.58,.24,.58,.58v.32h2.44v-.35c0-.32,.24-.55,.58-.55s.55,.23,.55,.55v13.07c0,.32-.23,.55-.55,.55s-.58-.23-.58-.55v-1.31h-2.44v2.09c0,.34-.24,.6-.58,.6s-.6-.25-.6-.6V3.82Zm3.61,11.11V4.77h-2.44V14.94h2.44Zm-.44,6.49c2.92-3.15,3.52-6.58,3.96-12.4l.21-3.04h-1.73c-.17,0-.3-.13-.3-.3s.13-.3,.3-.3h1.76l.22-3.87c.03-.76,1.21-.74,1.17,.02-.05,1.08-.13,2.51-.22,3.84h2.14v-.35c.03-.81,1.21-.76,1.19,.02l-.35,11.94c-.08,2.85-1.43,4.74-4.83,4.05-.25-.05-.21-.41,.02-.41,2.76,0,3.54-1.31,3.64-4.19l.32-10.47h-2.16l-.21,3.08c-.35,5.59-1.06,9.78-4.88,12.66-.21,.16-.39-.14-.25-.3ZM28.52,3.85c0-.32,.24-.55,.58-.55s.55,.23,.55,.55v.35h2.76v-.35c0-.32,.24-.55,.58-.55s.55,.23,.55,.55V20.64c0,.33-.23,.58-.55,.58s-.58-.24-.58-.58v-1.61h-2.76v1.86c0,.33-.23,.58-.55,.58s-.58-.24-.58-.58V3.85Zm3.89,14.57V4.81h-2.76v13.6h2.76Z"/>
  <path d="M43.58,3.78c0-.33,.25-.58,.6-.58s.58,.24,.58,.58v.32h2.44v-.32c0-.33,.25-.58,.6-.58s.58,.24,.58,.58v13.28c0,.33-.24,.58-.58,.58s-.6-.24-.6-.58v-.83h-2.44v1.52c0,.34-.24,.6-.58,.6s-.6-.25-.6-.6V3.78Zm3.61,11.83V4.72h-2.44V15.6h2.44Zm.87,5.82c4.52-2.8,5.02-5.38,5.04-11h-3.24c-.18,0-.32-.14-.32-.32s.14-.32,.32-.32h3.24V5.6h-3.47c-.18,0-.32-.14-.32-.32s.14-.32,.32-.32h3.47V1.64c0-.37,.26-.62,.64-.62,.35,0,.6,.25,.6,.62V10.66c0,6.03-1.1,9.3-6.1,11.11-.23,.09-.37-.23-.18-.34Zm4.33-7.29c.16-.11,.35,.07,.28,.21-.78,1.38-1.82,2.32-3.15,2.62-.71,.16-1.01-.9-.32-1.13,1.38-.48,2.07-.83,3.2-1.7ZM56.63,1.61c0-.37,.25-.62,.62-.62s.62,.25,.62,.62v3.34h2.3c.46,0,.76-.18,1.06-.18s.51,.21,.51,.51-.21,.51-.51,.51-.6-.18-1.01-.18h-2.35v4.19h2.07c.46,0,.76-.18,1.06-.18s.51,.21,.51,.51-.21,.51-.51,.51-.6-.18-1.01-.18h-2.12v4.49h2.88c.48,0,.78-.18,1.08-.18s.51,.22,.51,.53c0,.29-.21,.48-.51,.48s-.6-.18-1.04-.18h-2.92v5.59c0,.34-.25,.6-.62,.6s-.62-.25-.62-.6V1.61Z"/>
  <path d="M69.45,21.47c2.23-3.22,2.29-7.27,2.29-13.21V3.55c0-.33,.24-.58,.58-.58s.6,.24,.6,.58v.3h15.24c.44,0,.74-.18,1.04-.18s.51,.21,.51,.51-.21,.51-.51,.51-.6-.18-1.01-.18h-15.27v4.26c0,5.75-.1,9.89-3.14,12.98-.21,.21-.46-.06-.32-.25Zm5.78-2.01v-2.01h-1.4c-.17,0-.3-.13-.3-.3s.13-.3,.3-.3h1.4v-1.7h-1.52c-.17,0-.3-.13-.3-.3s.13-.3,.3-.3h3.08c.44,0,.74-.18,1.01-.18,.3,0,.51,.2,.51,.48s-.21,.48-.51,.48c-.28,0-.58-.18-.99-.18h-.58v1.7h.18c.44,0,.74-.18,1.01-.18,.3,0,.51,.2,.51,.48s-.21,.48-.51,.48c-.28,0-.58-.18-.99-.18h-.21v1.81c.64-.15,1.27-.33,1.93-.56,.16-.05,.26,.17,.12,.28-1.31,.91-3.08,1.59-4.99,1.75-.64,.05-.69-.9-.07-.97,.73-.09,1.38-.18,2-.29Zm-1.45-13.79h5.68c.44,0,.71-.18,.99-.18s.48,.2,.48,.48-.2,.51-.48,.51c-.25,0-.51-.17-.88-.21v15.12c0,.29-.21,.48-.51,.48s-.51-.2-.51-.48V10.68h-2.88v1.66c.91-.13,1.74-.28,2.39-.46,.18-.05,.25,.18,.14,.28-1.24,.81-2.6,1.24-4.26,1.36-.69,.05-.78-.92-.14-.97l.85-.08V6.26h-.9c-.17,0-.3-.13-.3-.3s.13-.3,.3-.3Zm4.79,2.28v-1.68h-2.88v1.68h2.88Zm0,2.14v-1.54h-2.88v1.54h2.88Zm-.39-9.11c1.38,.07,3,.54,3.73,1.36,.66,.75-.21,1.53-.81,1.02-1.08-.9-2.01-1.62-2.99-2.08-.16-.08-.1-.31,.07-.3Zm3.36,15.6c.02-.14,.28-.16,.3,.02,.14,1.27-.18,2.85-1.13,3.64-.53,.41-1.2-.28-.67-.81,.83-.83,1.29-1.89,1.5-2.85Zm-.99-2.9h7.41c.44,0,.71-.18,.99-.18s.48,.2,.48,.48-.2,.48-.48,.48-.55-.18-.97-.18h-7.43c-.17,0-.3-.13-.3-.3s.13-.3,.3-.3Zm.32-6.83h3.5v-1.43c0-.3,.21-.51,.51-.51s.51,.21,.51,.51v1.43h2.44c.44,0,.71-.18,.99-.18s.48,.2,.48,.48-.2,.48-.48,.48-.55-.18-.97-.18h-2.46v1.36h2.3v-.12c0-.28,.21-.48,.48-.48s.48,.21,.48,.48v3.83c0,.28-.21,.47-.48,.47s-.48-.2-.48-.47v-.26h-5.57v.35c0,.28-.21,.48-.48,.48s-.48-.21-.48-.48v-3.91c0-.28,.21-.48,.48-.48s.48,.21,.48,.48v.12h2.25v-1.36h-3.5c-.17,0-.3-.13-.3-.3s.13-.3,.3-.3Zm2.49,4.81v-2.25h-1.24v2.25h1.24Zm-.76,4.21c0-.31,.2-.53,.48-.53s.51,.22,.51,.53v3.29c0,.83,.53,1.23,1.32,1.28,.36,.02,.91,.02,1.28,0,1.06-.07,1.29-.93,1.43-1.74,.02-.16,.28-.16,.3,0,.3,1.54-.3,2.58-1.73,2.67-.35,.02-.92,.02-1.36,0-1.33-.07-2.23-.83-2.23-2.14v-3.36Zm1.77-1.15c.92,.44,1.86,1.61,2.07,2.6,.14,.67-.85,.97-1.08,.25-.23-.71-.69-1.96-1.2-2.6-.12-.14,.07-.32,.21-.25Zm1.17-3.06v-2.25h-1.27v2.25h1.27Zm2.14,0v-2.25h-1.27v2.25h1.27Zm-.16,4.72c1.13,.46,2.21,1.73,2.49,2.95,.14,.67-.83,.99-1.08,.21-.35-.99-.79-2.07-1.55-2.92-.09-.12,.01-.28,.15-.23Z"/>
  <path d="M97.05,21.47c2.23-3.22,2.3-6.9,2.3-12.1V3.39c0-.33,.24-.58,.58-.58s.6,.24,.6,.58v.3h15.23c.44,0,.74-.18,1.04-.18s.51,.21,.51,.51-.21,.51-.51,.51-.6-.18-1.01-.18h-15.26v5.52c0,5.02-.12,8.79-3.15,11.87-.21,.21-.46-.06-.32-.25Zm5.35-5.22c.05-.17,.32-.16,.33,.02,.09,1.77-.6,3.87-2.09,4.74-.76,.41-1.27-.51-.74-.97,1.33-1.08,2.04-2.21,2.5-3.8Zm1.44-10.88c.21-.76,1.33-.51,1.15,.35-.51,2.19-2.09,4.56-3.84,5.45-.21,.09-.34-.16-.21-.3,1.38-1.43,2.37-3.71,2.9-5.5Zm-1.04,5.2c0-.34,.25-.6,.6-.6s.58,.25,.58,.6v3.93c0,.33-.24,.58-.58,.58s-.6-.24-.6-.58v-3.93Zm1.5,5.43c0-.33,.24-.58,.58-.58s.6,.24,.6,.58v2.01c0,1.44,.6,2.05,2.33,2.14,.73,.05,2.43,.05,3.11,0,1.55-.12,2.08-.91,2.34-2.52,.02-.18,.3-.16,.34,.02,.53,2.21-.74,3.5-2.6,3.61-.78,.05-2.51,.05-3.29,0-2.3-.14-3.41-1.15-3.41-3.13v-2.14Zm3.04-10.63c.21-.76,1.33-.51,1.15,.35-.51,2.19-2.09,4.56-3.84,5.45-.21,.09-.35-.16-.21-.3,1.38-1.43,2.37-3.71,2.9-5.5Zm-1.56-4.4c1.38,.09,2.74,.51,3.45,1.24,.69,.71-.21,1.59-.83,1.01-1.04-.94-1.73-1.47-2.69-1.96-.16-.08-.1-.31,.07-.3Zm.62,9.48c0-.33,.25-.58,.6-.58s.58,.24,.58,.58v2.99h3.57v-1.68h-2.78c-.17,0-.3-.13-.3-.3s.13-.3,.3-.3h2.78v-1.54h-2.78c-.17,0-.3-.13-.3-.3s.13-.3,.3-.3h2.78v-1.59h-2.44c-.17,0-.3-.13-.3-.3s.13-.3,.3-.3h2.5c.45-.54,.81-1.07,1.14-1.66,.39-.78,1.43-.25,1.06,.44-.28,.53-.8,.94-1.38,1.22h2.51c.44,0,.71-.18,.99-.18s.48,.2,.48,.48c0,.26-.2,.46-.48,.46s-.55-.16-.97-.16h-2.23v1.59h1.54c.44,0,.71-.18,.99-.18s.48,.2,.48,.48-.2,.48-.48,.48-.55-.18-.94-.18h-1.59v1.54h1.54c.44,0,.71-.18,.99-.18s.48,.2,.48,.48-.2,.48-.48,.48-.55-.18-.94-.18h-1.59v1.68h2.69c.44,0,.71-.18,.99-.18s.48,.2,.48,.48-.2,.48-.48,.48-.55-.18-.97-.18h-7.46v.46c0,.33-.24,.58-.58,.58s-.6-.24-.6-.58v-4.05Zm1.43,4.86c1.36,.3,2.85,1.04,3.54,2.21,.37,.64-.48,1.38-.97,.76-1.04-1.33-1.59-1.9-2.71-2.69-.12-.08-.05-.32,.14-.28Zm5.96,.71c1.63,.69,3.01,1.91,3.7,3.57,.3,.74-.69,1.31-1.13,.48-.78-1.45-1.52-2.6-2.76-3.75-.13-.13,0-.37,.18-.3Z"/>
  <path d="M125.48,6.19h2.97V1.61c0-.33,.25-.58,.6-.58s.58,.24,.58,.58V6.19h1.61c.44,0,.71-.18,.99-.18s.48,.2,.48,.48c0,.26-.2,.46-.48,.46s-.55-.16-.97-.16h-1.63v4.26c.89-.5,1.67-1.04,2.48-1.66,.23-.18,.5,.09,.31,.32-.77,.93-1.71,1.79-2.79,2.51v5.89c0,2.67-1.59,4.07-4.05,3.45-.21-.05-.18-.34,0-.34,2.32-.12,2.88-1.17,2.88-3.54v-4.77c-.83,.43-1.73,.77-2.69,1.02-.83,.21-1.15-.9-.3-1.15,1.16-.36,2.13-.72,2.99-1.13V6.79h-2.97c-.17,0-.3-.13-.3-.3s.13-.3,.3-.3Zm6.95,15.19c2.19-.58,4.22-1.48,5.89-2.74-1.1-.96-1.98-2.05-2.49-3.22-.07-.18,.16-.36,.3-.2,.82,1.08,1.84,1.98,2.99,2.74,1.12-.99,2.01-2.19,2.62-3.58h-6.28c-.92,3.07-2.62,5.49-5.5,7.13-.21,.12-.44-.14-.25-.3,3.09-2.67,4.48-5.4,5.1-9.37h-2.75c-.17,0-.3-.13-.3-.3s.13-.3,.3-.3h2.84c.08-.66,.15-1.35,.21-2.07h-1.9c-.17,0-.3-.13-.3-.3,0-.18,.13-.32,.3-.32h9.48c.44,0,.71-.16,.99-.16s.48,.2,.48,.48c0,.26-.2,.46-.48,.46s-.55-.16-.97-.16h-6.41c-.03,.71-.1,1.4-.2,2.07h7.34c.44,0,.71-.18,.99-.18s.48,.2,.48,.48-.2,.48-.48,.48-.55-.18-.97-.18h-7.44c-.1,.67-.24,1.31-.4,1.93h6.36l.08-.23c.23-.69,1.31-.41,1.1,.37-.5,1.81-1.54,3.39-3,4.67,1.38,.76,2.92,1.35,4.54,1.79,.83,.23,.53,1.45-.32,1.27-1.83-.4-3.66-1.23-5.19-2.32-1.83,1.29-4.14,2.14-6.71,2.42-.21,.02-.28-.32-.07-.37Zm.25-17.67c3.38-.35,7.99-1.2,10.49-2.37,.8-.37,1.27,.71,.6,1.06-2.73,1.4-7.46,1.86-11.09,1.73-.23,0-.28-.39,0-.41Zm1.57,1.09c1.02,.49,1.94,1.28,2.32,2.42,.26,.78-.82,1.23-1.14,.43-.41-1.05-.86-1.86-1.4-2.58-.12-.16,.08-.35,.22-.26Zm3.17-.38c.97,.55,1.83,1.47,2.07,2.67,.18,.89-.91,1.14-1.17,.32-.32-1.01-.59-1.82-1.13-2.74-.1-.17,.07-.35,.23-.25Zm4.89-.24c.25-.77,1.38-.48,1.13,.37-.51,1.66-1.44,2.81-2.85,3.61-.14,.08-.31-.09-.2-.24,1.01-1.3,1.47-2.35,1.92-3.74Z"/>
</svg>