<?xml version="1.0" encoding="UTF-8"?>
<svg id="_圖層_9" data-name="圖層 9" xmlns="http://www.w3.org/2000/svg" viewBox="0 0 160.87 22.69">
  <defs>
    <style>
      .cls-1 {
        fill: #231815;
      }
    </style>
  </defs>
  <path class="cls-1" d="M22.9,17.28h-1.16c-.33-.02-.67,.06-1,.22-.36,.17-.59,.3-.69,.4-.1,.1-.3,.36-.58,.77V1.92h5.79v15.36c-.33-.02-.67,.06-1,.22-.36,.17-.59,.3-.69,.4-.1,.1-.32,.36-.66,.77v-1.4Zm0-14.16c0-.18-.06-.32-.19-.42l-.35-.22c-.15-.02-.27,.06-.35,.22l-.27,.4v12.99c0,.18,.09,.32,.27,.42l.31,.22c.15,0,.27-.07,.35-.22l.23-.42V3.12Zm6.48,19.39V6.46c0-.75-.28-1.12-.85-1.12V14.06c0,1.78-.32,3.42-.95,4.92-.63,1.5-1.5,2.65-2.6,3.45l-.08-.07c.51-1.1,.87-2.11,1.06-3.04s.29-2.38,.29-4.36V5.33h-1.31v-.55h1.31V2.57c0-.32-.12-.57-.37-.76-.24-.19-.55-.29-.91-.29,.85-.28,1.54-.65,2.08-1.1l.31-.25,1.16,1.45v3.17h3.09V21.09c-.31,0-.68,.11-1.12,.32-.36,.17-.69,.47-1,.9l-.12,.2Zm6.29-1.42h-1.04c-.31,0-.69,.11-1.16,.32-.33,.15-.66,.45-.96,.9l-.15,.2-.04-19.05h5.59l.04,17.62c-.31,0-.69,.1-1.16,.31s-.79,.51-.96,.91l-.15,.2v-1.42Zm0-16.43c0-.43-.17-.65-.5-.65-.36,0-.54,.21-.54,.62v15.26c0,.43,.18,.66,.54,.67,.36,0,.53-.22,.5-.67V4.66Z"/>
  <path class="cls-1" d="M58.41,22.41V2.74c-.08-.43-.26-.7-.54-.8-.23-.07-.5-.1-.81-.1,.03,.02,.05,.02,.08,.02V14.28c0,1.76-.42,3.34-1.27,4.75-.85,1.4-2.08,2.51-3.7,3.33l-.08-.1c.1-.12,.37-.48,.81-1.1,.41-.63,.69-1.19,.85-1.67,.41-1.11,.62-2.64,.62-4.59h-2.04v3.59c-.39,0-.76,.08-1.12,.25-.72,.27-1.2,.59-1.43,.97l-.23,.17v-1.4h-1.47c-.41,0-.81,.08-1.2,.25-.72,.27-1.2,.59-1.43,.97l-.19,.17V2.84h7.06v2.14h2.04V2.74c-.1-.43-.31-.7-.62-.8-.41-.1-.89-.15-1.43-.15,.23-.02,.82-.21,1.76-.59,.94-.37,1.47-.6,1.6-.69,0,.08,.22,.32,.66,.72,.23,.2,.42,.35,.58,.45,.28-.1,.71-.27,1.27-.5,.95-.38,1.48-.61,1.58-.67,0,.07,.23,.3,.68,.71,.45,.41,.71,.62,.79,.64v3.12h2.7v.52h-2.7v4.26h2.7v.52h-2.7v4.06h2.7v.55h-2.7v6.13c-1.16,.22-2.02,.61-2.58,1.2l-.23,.17ZM49.54,4.04c0-.18-.08-.32-.23-.4l-.42-.25h-.12c-.18,0-.32,.08-.42,.25l-.27,.37v13.29c0,.18,.09,.32,.27,.42l.42,.22c.21,0,.36-.07,.46-.22l.31-.42V4.04Zm2.78,1.47v4.26h2.04V5.51h-2.04Zm0,4.79v4.06h2.04v-4.06h-2.04Z"/>
  <polygon class="cls-1" points="77.49 16.99 77.49 17.28 76.56 17.28 76.56 19.06 77.49 19.06 77.49 19.36 76.56 19.36 76.56 21 77.49 21 77.49 21.31 74.52 21.29 74.52 20.99 75.42 21 75.42 19.36 74.77 19.35 74.77 19.05 75.42 19.06 75.42 17.28 74.52 17.27 74.52 16.98 77.49 16.99"/>
  <path class="cls-1" d="M74.31,5.53h6.26v.44h-.69v15.17c-.23,0-.56,.1-1,.3-.15,.07-.29,.17-.44,.3-.08,.09-.18,.22-.28,.38l-.13,.16v-6h-3.73v-.44h.75V5.96h-.75v-.44Zm3.73,3.56v-3.12h-1.1v3.12h1.1Zm-1.1,.42v2.92h1.1v-2.92h-1.1Zm0,6.32h1.1v-2.98h-1.1v2.98Zm4.01,2.42c0-.27-.04-1.1-.11-1.19-.07-.09-.28-.14-.61-.14,.35-.11,.68-.25,.97-.44,.29-.19,.49-.34,.6-.46l.16-.2,.66,.85v.34c0,.95-.14,2.38-.42,2.95-.28,.58-.89,1.07-1.83,1.48l-.09-.06c.33-.32,.53-.68,.6-1.08,.06-.4,.09-1.09,.09-2.06Zm8.21-8.84v4.17s-.27,.11-.81,.3c-.19,.07-.34,.17-.47,.32-.13,.17-.2,.3-.22,.38l-.03,.14v-1.13h-5.26c-.06,.03-.32,.13-.78,.3-.19,.07-.34,.17-.47,.32-.15,.16-.23,.29-.25,.38l-.03,.14v-5.31h3.1v-1.22h-3.45v-.42h3.45v-1.25c0-.25-.1-.46-.31-.62-.21-.15-.48-.22-.81-.22,.35-.11,.71-.25,1.06-.42,.35-.17,.63-.32,.81-.46l.28-.2,.97,1.13v2.03h3.57v.42h-3.57v1.22h3.23Zm-6.8,.44v3.32h.72v-3.32h-.72Zm6.48,11.02v.44h-5.48v-5.19c0-.32-.08-.6-.25-.83-.17-.24-.4-.36-.69-.36,.35-.11,.7-.25,1.03-.42,.33-.17,.57-.32,.72-.46l.22-.16,.94,1.11v4.91c.08,.32,.19,.54,.31,.68,.02,.07,.08,.12,.19,.17,.1,.05,.21,.08,.31,.09l.13,.02h2.57Zm-4.23-7.7h.72v-3.32h-.72v3.32Zm1.38,2.99v-.32c0-.16-.18-.26-.53-.3,.13,0,.47-.12,1.03-.36,.56-.23,.87-.37,.91-.44-.17,1.06-.36,2.55-.56,3.16-.1,.25-.25,.54-.44,.87-.21,.34-.39,.61-.53,.8l-.19,.32c.21-1.01,.31-2.69,.31-3.74Zm3.82-1.21c-.31,1.13-.69,2.65-1.13,3.26-.19,.25-.44,.54-.75,.85s-.58,.57-.81,.76l-.34,.32c.54-.65,.89-1.21,1.03-1.69,.33-.89,.4-2.16,.19-2.5,0-.03-.03-.05-.08-.08-.05-.03-.11-.05-.17-.06-.06-.01-.1-.03-.13-.04,.08,0,.45-.12,1.11-.36s1.02-.39,1.08-.46Zm-2.19-5.1h-.78v3.32h.78v-3.32Z"/>
  <path class="cls-1" d="M103.47,1.52c1.41-.28,2.58-.66,3.51-1.12l.54-.22,1.77,1.4v1.3c0,.27,.17,.49,.5,.69,.33,.19,.64,.29,.93,.29h5.13v.52h-12.69c-.54,.1-.9,.21-1.08,.32-.31,.2-.52,.49-.62,.87V14.31c0,1.76-.52,3.34-1.54,4.75-1.03,1.4-2.51,2.51-4.44,3.33l-.12-.07c.87-1.11,1.47-2.09,1.77-2.92s.46-2.23,.46-4.19V3.84h6.4c.33,0,.66-.11,.96-.32,.31-.22,.46-.51,.46-.87s-.18-.64-.54-.84c-.36-.19-.84-.29-1.43-.29Z"/>
  <path class="cls-1" d="M106.29,12.2v-4.13c-.36,.17-.76,.33-1.2,.5v3.53c-.21,0-.57,.05-1.08,.16-.52,.11-.84,.21-.96,.3-.13,.09-.35,.26-.66,.51v-5.02c-.39,.13-.8,.26-1.23,.37l-.08-.05c.21-.12,.6-.51,1.2-1.17,.26-.3,.4-.66,.42-1.07,0-.22-.15-.39-.46-.54-.31-.14-.67-.21-1.08-.21,1.16-.23,2.01-.48,2.55-.75l.35-.17,1.23,.92c.9-.22,1.71-.47,2.43-.75l.39-.15,1.31,.97c-.1,.45-.32,.83-.66,1.15h1.27c.36-.15,.54-.36,.54-.62-.03-.43-.41-.64-1.16-.62,.98-.22,1.75-.48,2.31-.8l.27-.15,1.31,1c0,.53-.81,.93-2.43,1.2h4.13v.37h-2.31v1.35h1.85v.37h-1.85v1.42h1.85v.4h-1.85v1.31h2.31v.37h-8.72Zm-1.2-3.88c.28-.2,.57-.4,.85-.6,.51-.37,.77-.89,.77-1.57,.03-.23-.12-.42-.42-.55-.26-.12-.58-.18-.96-.2l.08,.05c-.18,.53-.5,1.01-.96,1.42l.66,.5v.95Zm3.97-1.35v1.35h.89v-1.35h-.89Zm.89,1.72h-.89v1.42h.89v-1.42Zm-.89,3.13h.89v-1.31h-.89v1.31Z"/>
  <path class="cls-1" d="M102.32,16.32c0-.33-.08-.56-.23-.67-.15-.12-.48-.17-.96-.17,.59-.13,1.12-.32,1.58-.55,.44-.22,.76-.41,.96-.57l.27-.25,1.04,1.07v.42c0,2.83-1.36,3.67-4.09,4.6l-.15-.07c1.05-.81,1.58-1.39,1.58-3.8Z"/>
  <path class="cls-1" d="M114.43,20.49v.55h-8.91v-5.82c0-.4-.14-.75-.42-1.05-.28-.3-.67-.45-1.16-.45,.59-.13,1.16-.3,1.7-.51,.54-.21,.93-.39,1.16-.56l.42-.2,1.54,1.4v5.45c.15,.4,.32,.68,.5,.85,.1,.08,.23,.15,.37,.21,.14,.06,.28,.1,.41,.11l.19,.02h4.21Z"/>
  <path class="cls-1" d="M110.03,14.62v-.33c0-.15-.28-.25-.85-.31,.18,0,.75-.12,1.72-.36,.96-.24,1.46-.39,1.49-.46-.28,1.09-.6,1.95-.96,2.57-.15,.26-.39,.56-.69,.91s-.59,.62-.85,.81l-.39,.33c.36-.9,.54-1.95,.54-3.17Z"/>
  <path class="cls-1" d="M115.81,14.65c-.57,1.16-1.18,2.04-1.85,2.65-.28,.26-.68,.56-1.2,.9-.52,.34-.96,.61-1.35,.8l-.58,.31c.87-.67,1.44-1.25,1.7-1.76,.51-.88,.62-1.51,.31-1.88-.03-.05-.14-.1-.35-.12l-.35-.08c.15,0,.77-.12,1.85-.36,1.08-.24,1.68-.39,1.81-.46Z"/>
  <path class="cls-1" d="M121.53,1.65c.28-.07,.84-.25,1.66-.55,.69-.25,1.13-.43,1.31-.55l.39-.25,1.5,1.4v3.89h1.85v.55h-1.85v6.18h1.85v.55h-1.85v8.2c-.44,0-1,.12-1.7,.35-.26,.08-.5,.22-.73,.4-.31,.25-.48,.4-.5,.45l-.15,.2V12.86h-1.89v-.55h1.89V6.13h-1.89v-.55h1.89V2.69c0-.32-.17-.57-.5-.76-.33-.19-.76-.29-1.27-.29Zm18.29,11.57c-1,1.81-2.25,3.41-3.74,4.79-2.34,2.16-5.59,3.58-9.76,4.26l-.08-.07c3.63-1.48,6.17-3.08,7.64-4.81,.69-.86,1.36-2.07,2.01-3.61h-3.78l-.23,.3c-1.08,1.3-2.58,2.35-4.51,3.17l-.12-.07c.85-.68,1.74-1.84,2.66-3.47,.87-1.56,1.4-3.08,1.58-4.56,.03-.33-.06-.58-.27-.75h-3.32v-.52h11.84v.52h-4.9c-.75,2.01-1.53,3.62-2.35,4.84h7.33Zm-9.8-9.57l1.47,1.25,.42,1.17c-.44,.08-.84,.3-1.2,.64-.36,.34-.58,.72-.66,1.13-.36-1.13-.82-1.91-1.39-2.34-.57-.43-1.11-.65-1.62-.65,.87-.25,1.74-.59,2.58-1.02l.39-.17Zm10.19,7.55h-12.77v-.52h12.77v.52Zm-.93-11.02c-1.08,1.81-5,2.93-11.77,3.37,4.04-.96,6.07-1.69,6.1-2.17,.03-.13-.08-.22-.31-.25l-.73-.07c1.36-.13,2.46-.25,3.28-.35l3.43-.52Zm-5.05,16.38l2.82,3.37c.59,.73,1.05,1.18,1.39,1.35,.93,.45,1.77,.75,2.55,.9l.42,.1c-2.19-.17-3.91-.47-5.17-.92-.93-.33-1.8-.88-2.62-1.65l-.42-.4-1.5-1.79c-.44-.51-.82-.81-1.16-.9-.54-.12-1.25-.13-2.12-.05,1.03-.25,1.71-.45,2.04-.6l1.5-.75c.33,.28,.67,.51,1,.67l1.27,.67Zm-.93-8.7l-.04-.5c-.21-1.28-.53-2.11-.96-2.49-.44-.38-.85-.6-1.23-.65,.77-.2,1.61-.53,2.51-1l.39-.2,1.27,1.4,.31,1.3c-.44,.08-.82,.24-1.16,.47-.31,.23-.54,.52-.69,.85l-.39,.82Zm2.12-.35l-.35,.25c.93-1.58,1.39-2.63,1.39-3.17s-.09-.88-.27-1.03c-.18-.16-.48-.24-.89-.24,1.05-.27,1.85-.6,2.39-1l.27-.2,1.31,1.27c0,.93-.39,1.71-1.16,2.33s-1.67,1.22-2.7,1.78Z"/>
  <path class="cls-1" d="M76.97,1.52c1.41-.28,2.58-.66,3.51-1.12l.54-.22,1.77,1.4v1.3c0,.27,.17,.49,.5,.69,.33,.19,.64,.29,.93,.29h5.13v.52h-12.69c-1.03,0-2.1,.23-2.36,1.2V14.31c0,1.76-.52,3.34-1.54,4.75-1.03,1.4-1.85,2.51-3.78,3.33l-.12-.07c.87-1.11,1.47-2.09,1.77-2.92s.46-2.23,.46-4.19V3.84h6.4c.33,0,.66-.11,.96-.32,.31-.22,.46-.51,.46-.87s-.18-.64-.54-.84c-.36-.19-.84-.29-1.43-.29Z"/>
</svg>