<?xml version="1.0" encoding="UTF-8"?>
<svg id="_圖層_10" data-name="圖層 10" xmlns="http://www.w3.org/2000/svg" viewBox="0 0 160.87 22.69">
  <defs>
    <style>
      .cls-1 {
        fill: #231815;
      }
    </style>
  </defs>
  <path class="cls-1" d="M7.54,1.78c.72-.13,1.45-.31,2.2-.54,.75-.22,1.3-.41,1.66-.56l.54-.22,1.47,1.42v.65c0,.53-.08,1.07-.23,1.62h4.63v-1.6c0-.32-.22-.57-.66-.76-.44-.19-.99-.29-1.66-.29,.72-.13,1.41-.31,2.06-.52,.66-.22,1.14-.41,1.45-.57l.46-.25,1.93,1.42v2.57h4.63v.55H12.98c-.41,1-1.08,1.92-2.01,2.77l1.08,.92v12.69c-.18,.02-.73,.14-1.66,.37-.33,.08-.66,.21-.98,.39-.32,.17-.53,.32-.64,.44l-.23,.22V9.54c-.9,.53-1.85,.99-2.85,1.37l-.08-.07c.15-.17,.62-.62,1.39-1.36,.77-.74,1.29-1.28,1.54-1.62,.26-.34,.54-.92,.85-1.73,.31-.81,.46-1.71,.46-2.69v-.57c0-.32-.23-.57-.68-.77-.45-.2-1-.3-1.64-.3Zm13.16,19.32h-3.32c-.26,0-.85,.12-1.77,.37-.33,.08-.66,.21-.96,.37-.31,.2-.54,.37-.69,.5l-.19,.17V13.55h10.57v7.55c-.26,0-.85,.12-1.77,.37-.33,.08-.66,.21-.96,.37-.31,.2-.54,.37-.69,.5l-.19,.17v-1.42ZM14.83,7.24h8.87v.52H14.83v-.52Zm0,3.07h8.87v.55H14.83v-.55Zm4.21,3.81c-.49,.1-.85,.22-1.08,.35-.13,.08-.24,.19-.33,.31-.09,.12-.15,.24-.17,.34l-.08,.15v4.11c.15,.4,.35,.67,.58,.82,.21,.13,.57,.25,1.08,.35,.51-.08,.87-.2,1.08-.35,.13-.08,.24-.19,.33-.32,.09-.13,.15-.25,.17-.35l.08-.15v-4.11c-.13-.38-.32-.65-.58-.8-.21-.13-.57-.25-1.08-.35Z"/>
  <path class="cls-1" d="M41.08,1.53c.69-.18,1.23-.37,1.62-.55,.72-.32,1.13-.51,1.23-.57l.46-.22,1.47,1.4v3.14h4.13v.55h-4.13v3.71h4.82v.52h-4.82v3.42h4.28v.55h-4.28v5.01c1.65,.13,3.34,.22,5.09,.25l-.19,.15c-.18,.12-.33,.26-.46,.42-.18,.2-.32,.41-.42,.62-.26,.58-.39,1.06-.39,1.42-1.83-.03-3.55-.38-5.17-1.05-1.23-.53-2.22-1.49-2.97-2.87-.1,.2-.19,.4-.27,.6-.8,1.51-1.95,2.67-3.47,3.47l-.08-.07c.69-1.1,1.13-2.11,1.31-3.04,.21-.95,.31-2.4,.31-4.36,0-.32-.17-.56-.5-.72-.33-.17-.73-.25-1.2-.25,.54-.13,1.07-.32,1.58-.55,.67-.27,1.08-.44,1.23-.52l.42-.25,1.5,1.4c0,1.46-.27,2.85-.81,4.16,.41,.25,.87,.46,1.39,.62V9.51h-4.67c-.31,.91-.89,1.75-1.74,2.49l.89,.9,.08,8.05c-.26,0-.81,.12-1.66,.35-.28,.08-.53,.22-.73,.4-.08,.08-.23,.24-.46,.47l-.15,.17V13.47c-.46,.28-1.18,.66-2.16,1.12v-.22c1.08-.91,1.88-1.83,2.39-2.74,.51-.91,.77-1.94,.77-3.09,0-.5-.39-.83-1.16-1-.44,.27-1.11,.62-2.01,1.07v-.22c1.08-.91,1.88-1.83,2.39-2.74,.51-.91,.77-1.94,.77-3.09,0-.3-.17-.55-.5-.75-.33-.2-.75-.3-1.23-.3,.57-.13,1.11-.32,1.62-.55,.54-.23,.95-.42,1.23-.57l.42-.2,1.5,1.4c0,1.21-.29,2.24-.87,3.09s-1.38,1.62-2.41,2.32c.72-.28,1.31-.56,1.77-.82l1.5,1.4c0,.5-.06,.97-.19,1.42h4.59v-3.71h-3.94v-.55h3.94V2.58c0-.32-.15-.57-.46-.76-.31-.19-.72-.29-1.23-.29Z"/>
  <path class="cls-1" d="M68.1,4.35c.62-.18,1.09-.36,1.43-.52,.72-.32,1.12-.51,1.2-.57l.39-.25,1.31,1.42V14.8c-.39,.02-.87,.14-1.47,.37-.28,.12-.53,.24-.73,.37-.1,.08-.24,.24-.42,.47l-.12,.2V7.57c-.23,.08-.49,.18-.77,.3-.69,.27-1.11,.44-1.23,.52h.23v6.03c-.41,0-.86,.08-1.35,.24-.49,.16-.81,.3-.96,.41-.15,.12-.37,.36-.66,.72v-1.42h-2.93c-.08,.63-.22,1.26-.42,1.87h6.87v4.86c-.28,0-.71,.08-1.27,.25-.57,.17-.93,.31-1.1,.44-.17,.12-.42,.37-.75,.74v-1.42h-2.82c-.28,0-.7,.08-1.25,.25-.55,.17-.92,.31-1.1,.44-.18,.12-.44,.37-.77,.74v-2.82c-.62,.6-1.33,1.1-2.12,1.5l-.04-.1c.72-1.1,1.2-2.11,1.43-3.03,.23-.92,.35-2.37,.35-4.35v-5.33h8.02l-1.27-1.2c0-.17-.01-.35-.04-.55h-4.17c-1.16,1.06-2.69,1.96-4.59,2.69l-.08-.07c.9-.7,1.83-1.7,2.8-3,.96-1.3,1.41-2.54,1.33-3.7-.03-.33-.17-.58-.42-.75-.21-.13-.55-.22-1.04-.25,.54-.13,1.05-.32,1.54-.57,.49-.22,.85-.41,1.08-.57l.39-.25,1.7,1.45c-.08,.27-.14,.52-.19,.77,1.59,.9,2.76,1.75,3.51,2.54l.93,1.2c.33,.45,.62,.77,.85,.97,.08,.07,.19,.11,.35,.12v-1.82c-.03-.32-.19-.57-.48-.77-.3-.2-.66-.29-1.1-.27Zm-6.06,1.75h3.59c-.21-1.2-.75-2.38-1.62-3.56-.49,1.46-1.14,2.65-1.97,3.56Zm.04,7.75h2.85v-2.27h-2.78v1.25c0,.35-.03,.69-.08,1.02Zm2.85-4.29c0-.18-.09-.32-.27-.42l-.46-.22h-1.31c-.18,0-.33,.07-.46,.22l-.27,.4v1.5h2.78v-1.47Zm.39,7.88c0-.18-.09-.32-.27-.42l-.42-.25h-1.35c-.21,0-.39,.08-.54,.25l-.23,.4v2.49c0,.18,.08,.32,.23,.42l.46,.25h1.31c.21,0,.37-.08,.5-.25l.31-.42v-2.47Zm6.79-15.93c.64-.18,1.14-.36,1.5-.52,.72-.37,1.09-.56,1.12-.57l.39-.25,1.35,1.42V20.93c-.44,.02-.94,.14-1.5,.37-.31,.12-.53,.24-.66,.37-.18,.13-.35,.29-.5,.47l-.15,.2V2.56c0-.3-.14-.55-.42-.75-.28-.2-.66-.3-1.12-.3Z"/>
  <path class="cls-1" d="M101.68,13.12v.55h-3.16v7.28c-.39,0-1.03,.12-1.93,.35-.26,.07-.53,.2-.81,.4-.13,.08-.31,.24-.54,.47l-.23,.17V4.6h-.42c-.21,.88-.59,1.79-1.16,2.74-.93,1.51-2.29,2.67-4.09,3.47l-.12-.1c.85-1.1,1.41-2.11,1.7-3.03,.28-.92,.42-2.37,.42-4.35v-.75c0-.32-.18-.57-.54-.77-.33-.18-.8-.27-1.39-.27l.08,.05v.67c0,1.63-.68,3.21-2.04,4.74l-.04,.02,1.35,1.1v12.84c-.46,0-1.11,.12-1.93,.35-.21,.05-.48,.18-.81,.4-.15,.08-.36,.24-.62,.47l-.19,.17V8.99c-.87,.63-1.83,1.18-2.85,1.65l-.04-.1c.13-.17,.53-.61,1.2-1.35,.67-.73,1.11-1.27,1.33-1.61,.22-.34,.47-.92,.75-1.75,.28-.82,.42-1.72,.42-2.68v-.57c0-.32-.2-.57-.6-.77-.4-.2-.87-.3-1.41-.3,.62-.13,1.23-.32,1.85-.55,.46-.17,.95-.36,1.47-.57l.46-.2,1.62,1.32c.59-.13,1.18-.31,1.77-.52,.26-.08,.73-.27,1.43-.57l.5-.22,1.7,1.42v.82c0,.57-.04,1.11-.12,1.65h7.37v.52h-3.55v4.04h3.16v.55h-3.16v3.94h3.16Z"/>
  <path class="cls-1" d="M110.68,10.68V5.5h2.04v-1.57h-4.17v-.55h4.17v-.42c0-.4-.17-.75-.52-1.05s-.83-.45-1.45-.45c.72-.13,1.41-.3,2.08-.5,.49-.15,1-.34,1.54-.57l.46-.2,1.93,1.4v1.79h3.7v-.42c0-.4-.17-.75-.5-1.05-.33-.3-.81-.45-1.43-.45,.72-.13,1.41-.3,2.08-.5,.49-.15,1-.34,1.54-.57l.46-.2,1.93,1.4v1.79h3.97v.55h-3.97v1.57h2.08v5.19h-15.97Zm-1.35,1.89v-.55h4.13c.21-.6,.27-1.2,.19-1.82h3.97c0,.63-.13,1.24-.39,1.82h11v.55h-3.94c.1,.27,.24,.52,.42,.77,.75,1.16,2.01,2.33,3.78,3.49l-.19,.07c-2.93-.86-5.09-1.88-6.48-3.04-.49-.42-.89-.85-1.2-1.3h-3.74c-.31,.45-.69,.88-1.16,1.3-1.39,1.16-3.55,2.18-6.48,3.04l-.19-.07c1.88-1.25,3.14-2.41,3.78-3.49,.15-.27,.3-.52,.42-.77h-3.94Zm15.86,2.74v5.71c-.57-.02-1.27,.09-2.12,.31-.85,.22-1.44,.53-1.77,.91l-.15,.17v-5.36c-.13-.37-.33-.64-.62-.82-.28-.18-.69-.31-1.23-.37h-.39c-.18,.93-.68,1.94-1.5,3.04-1.08,1.46-2.7,2.62-4.86,3.47l-.12-.1c1.13-1.1,1.94-3.23,2.43-6.41h-3.4v-.55h3.2c-.1-.13-.27-.25-.5-.35-.46-.2-1-.3-1.62-.3,.72-.12,1.44-.29,2.16-.52,1.03-.32,1.59-.5,1.7-.55l.54-.25,2.01,1.42v.55h6.25Zm-9.3-9.3c-.75,0-1.12,.28-1.12,.85v.95h7.83v-.95c0-.56-.37-.85-1.12-.85h-5.59Zm0,4.14h5.59c.75,0,1.12-.28,1.12-.85v-.95h-7.83v.95c0,.57,.37,.85,1.12,.85Zm4.59-4.66v-1.57h-3.7v1.57h3.7Z"/>
  <path class="cls-1" d="M146.46,21.05c-.33,0-.88,.08-1.64,.24-.76,.16-1.24,.3-1.45,.44-.18,.12-.5,.36-.96,.72v-4.49c-1.95,1.7-4.6,2.79-7.95,3.29l-.04-.07c1.26-.76,2.62-1.75,4.09-2.94s2.38-2.45,2.74-3.76h-5.52v-.55h6.67v-1.65h-1.12c-.57,0-1.16,.08-1.77,.25-.98,.23-1.75,.62-2.31,1.17V6.59c-.82,.37-1.76,.71-2.82,1.02l-.08-.05c.77-.48,1.52-.98,2.24-1.5,1.34-.91,2.01-1.99,2.01-3.24v-.27c0-.33-.23-.59-.68-.79-.45-.19-1-.29-1.64-.29,1.16-.22,2.44-.58,3.86-1.1l.54-.22,2.01,1.42c-.18,1.06-.79,2.03-1.81,2.89h3.9c.87-.73,1.42-1.41,1.64-2.03,.22-.62-.38-.93-1.79-.93,1.36-.28,2.52-.66,3.47-1.12l.42-.22,1.97,1.42c0,.93-1.66,1.89-4.98,2.89h7.95v.55h-4.75v1.94h3.94v.52h-3.94v1.94h3.94v.55h-3.94v1.77h4.75v.52h-6.94v1.65h6.94v.55h-6.94v.15c.72,.4,1.45,.78,2.2,1.15,.62,.3,1.2,.66,1.74,1.07,.49,.37,.89,.71,1.2,1.02l.39,.35c1.08,.63,2.17,.96,3.28,1-.72,.17-1.44,.34-2.16,.52-.52,.15-1.06,.33-1.62,.55l-.58,.2-1.93-1.4c-1.18-1.5-1.88-2.39-2.08-2.69-.13-.18-.27-.37-.42-.57v5.24Zm-5.17-16.03v1.94h3.28v-1.94h-3.28Zm3.28,2.47h-3.28v1.94h3.28v-1.94Zm-3.28,4.26h3.28v-1.77h-3.28v1.77Z"/>
</svg>