<?xml version="1.0" encoding="UTF-8"?>
<svg id="_圖層_3_拷貝_3" data-name="圖層 3 拷貝 3" xmlns="http://www.w3.org/2000/svg" viewBox="0 0 160.87 22.69">
  <path d="M1.19,11.53C3.75,8.51,5.36,5.2,6.21,1.5c.21-.85,1.43-.64,1.24,.3-.78,4.03-2.85,7.71-5.98,10.06-.23,.17-.43-.15-.28-.32Zm3.06-1.29c0-.38,.25-.64,.62-.64s.62,.26,.62,.64v11.02c0,.39-.25,.67-.62,.67s-.62-.28-.62-.67V10.24Zm3.73-5.15h11.74c.48,0,.78-.18,1.08-.18s.53,.22,.53,.53-.22,.53-.53,.53-.6-.18-1.06-.18H7.98c-.21,0-.35-.14-.35-.35s.14-.35,.35-.35Zm1.45,3.01h8.93c.46,0,.74-.18,1.04-.18s.51,.21,.51,.51-.21,.51-.51,.51-.58-.18-1.01-.18H9.43c-.18,0-.32-.14-.32-.32s.14-.32,.32-.32Zm0,2.92h8.93c.46,0,.74-.18,1.04-.18s.51,.21,.51,.51-.21,.51-.51,.51-.58-.18-1.01-.18H9.43c-.18,0-.32-.14-.32-.32s.14-.32,.32-.32Zm-.16,2.95c0-.37,.25-.62,.62-.62s.62,.25,.62,.62v.39h8.03v-.39c0-.37,.25-.62,.62-.62s.62,.25,.62,.62v7.13c0,.37-.25,.62-.62,.62s-.62-.25-.62-.62v-1.33H10.51v1.43c0,.37-.25,.62-.62,.62s-.62-.25-.62-.62v-7.23Zm9.27,5.18v-4.17H10.51v4.17h8.03ZM12.12,.99c1.37,.37,3,1.32,3.76,2.48,.6,.92-.45,1.59-1,.87-.97-1.27-1.85-2.28-2.9-3.01-.16-.14-.05-.39,.14-.35Z"/>
  <path d="M34.57,6.44c.39-.78,1.43-.32,1.13,.46-1.04,2.76-3.43,5.15-6.49,6.6-.18,.07-.32-.18-.16-.31,2.53-1.98,4.21-3.97,5.52-6.75Zm-.6-4.9c.33-.74,1.45-.35,1.15,.48-1.06,2.74-3.18,5.2-5.82,6.37-.16,.07-.28-.18-.16-.28,2.12-1.77,3.67-4.02,4.83-6.58Zm-1.96,11.11c0-.33,.25-.58,.6-.58s.58,.24,.58,.58v8.56c0,.35-.24,.6-.58,.6s-.6-.25-.6-.6V12.66Zm5.13-.44c.07-.76,1.24-.69,1.2,.09-.23,4-1.5,7.43-4.46,9.46-.17,.11-.39-.13-.23-.3,2.51-2.69,3.15-5.61,3.5-9.25Zm.99,4.26c-.08-.23,.23-.34,.35-.16,.78,1.23,1.69,2.08,2.78,2.66V10.08h-5.78c-.18,0-.32-.13-.32-.3s.14-.3,.32-.3h5.78v-3.93h-4.4c-.17,0-.3-.14-.3-.32,0-.17,.13-.3,.3-.3h4.4V1.77c0-.37,.26-.62,.64-.62,.34,0,.6,.25,.6,.62v3.15h3.57c.44,0,.71-.18,1.01-.18s.48,.2,.48,.48-.2,.51-.48,.51-.58-.18-.99-.18h-3.59v3.93h5.18c.44,0,.74-.18,1.01-.18,.3,0,.51,.2,.51,.48s-.21,.48-.51,.48c-.28,0-.58-.18-.99-.18h-5.2v3.47h4.12c.44,0,.74-.18,1.01-.18,.3,0,.51,.2,.51,.48s-.21,.51-.51,.51c-.28,0-.58-.18-.99-.18h-4.14v5.3c1.63,.51,3.62,.58,6.07,.43,.9-.05,.99,1.31,.07,1.38-4.99,.37-9.05-.64-10.52-4.81Z"/>
  <path d="M62.74,1.24c.35-.78,1.47-.35,1.17,.44-1.16,3.08-4,6.07-7.36,7.52-.26,.11-.39-.24-.22-.36,2.83-2.02,5.11-4.71,6.41-7.6Zm-3.75,11.48v-4.46c0-.34,.23-.6,.55-.6,.34,0,.6,.25,.6,.6v.18h6.44v-.18c0-.34,.24-.6,.58-.6s.58,.25,.58,.6v5.59c0,.33-.24,.58-.58,.58s-.58-.24-.58-.58v-.3h-6.45c-.08,3.55-.99,6.55-3.09,8.12-.21,.14-.41-.09-.3-.25,1.82-2.39,2.25-5.02,2.25-8.7Zm7.59-2.05v-1.61h-6.44v1.61h6.44Zm0,2.25v-1.63h-6.44v1.63h6.44Zm-6.03,2.6c0-.34,.23-.6,.55-.6,.35,0,.6,.25,.6,.6v.28h5.38v-.28c0-.33,.24-.58,.58-.58s.58,.24,.58,.58v5.52c0,.33-.24,.58-.58,.58s-.58-.24-.58-.58v-1.27h-5.38v1.5c0,.33-.25,.58-.6,.58-.32,0-.55-.24-.55-.58v-5.75Zm6.53,3.64v-2.74h-5.38v2.74h5.38Zm-4.67-13.93c.78,.36,1.94,.92,2.34,1.9,.32,.81-.68,1.33-1.12,.56-.4-.7-.84-1.39-1.45-2.19-.12-.15,0-.38,.23-.28Zm1.83-2.59c1.69,.62,3.44,1.89,4.29,3.26,.55,.91-.48,1.56-1.01,.82-1.12-1.58-2.02-2.61-3.45-3.75-.17-.14-.07-.41,.17-.32Zm5.84,1.28c0-.33,.23-.56,.56-.56s.59,.23,.59,.56v12.52c0,.33-.24,.56-.59,.56s-.56-.23-.56-.56V3.92Zm1.19,17.32c2.28-.28,2.99-1.36,2.99-3.61V1.66c0-.33,.25-.58,.6-.58s.58,.24,.58,.58V18.11c0,2.6-1.79,4.05-4.17,3.5-.21-.05-.21-.35,0-.37Z"/>
  <path d="M83.95,11.37c2.85-2.97,4.49-6.35,5.38-9.85,.21-.85,1.44-.58,1.25,.28-.79,3.65-2.8,7.52-6.36,9.89-.23,.14-.44-.14-.28-.32Zm3.75-1.7c0-.39,.26-.67,.64-.67s.64,.28,.64,.67v11.55c0,.4-.26,.69-.64,.69s-.64-.29-.64-.69V9.66Zm6.79-8.17c.18-.78,1.42-.6,1.22,.3-.69,3.18-2.03,6.72-5.66,9.25-.18,.11-.46-.09-.28-.3,2.97-3.31,3.96-6.19,4.72-9.25Zm1.1,3.45h7.34c.46,0,.76-.18,1.08-.18,.3,0,.51,.22,.51,.53,0,.29-.21,.48-.51,.48-.32,0-.62-.16-1.06-.16h-5.54v4.39h5.02c.44,0,.71-.18,1.04-.18,.26,0,.46,.21,.46,.51s-.2,.51-.46,.51c-.32,0-.6-.18-1.01-.18h-5.04v4.42h5.02c.44,0,.71-.18,1.04-.18,.26,0,.46,.21,.46,.51s-.2,.51-.46,.51c-.32,0-.6-.18-1.01-.18h-5.04v5.66c0,.37-.26,.62-.64,.62s-.64-.25-.64-.62V5.61h-.53c-.21,0-.34-.14-.34-.32,0-.21,.14-.35,.34-.35Z"/>
  <path d="M112.33,12.56h5.88c.51-.6,.97-1.27,1.4-2.03h-3.09v.35c0,.33-.24,.58-.58,.58s-.6-.24-.6-.58V5.66c0-.35,.25-.6,.6-.6s.58,.25,.58,.6v.12h10.65v-.12c0-.35,.25-.6,.6-.6s.58,.25,.58,.6v5.22c0,.33-.24,.58-.58,.58s-.6-.24-.6-.58v-.35h-6.18c-.41,.75-.86,1.43-1.35,2.03h10.49c.46,0,.74-.21,1.04-.21s.51,.21,.51,.51-.21,.51-.51,.51-.58-.18-1.01-.18h-5.22c2.34,1.43,4.46,2.01,6.67,2.46,.78,.16,.55,1.33-.25,1.2-1.99-.37-5.08-1.46-7.13-3.66h-5.1c-1.92,2.14-4.28,3.27-6.95,3.77-.24,.05-.31-.28-.1-.34,2.21-.83,4.04-1.85,5.57-3.43h-5.32c-.17,0-.3-.14-.3-.32,0-.17,.13-.3,.3-.3Zm.16-9.69h5.64V1.56c0-.35,.25-.6,.6-.6s.58,.25,.58,.6v1.31h4.97V1.56c0-.35,.25-.6,.6-.6s.58,.25,.58,.6v1.31h4.49c.44,0,.71-.18,1.01-.18s.48,.2,.48,.48-.2,.48-.48,.48-.58-.18-.99-.18h-4.51v1.22c0,.33-.24,.58-.58,.58s-.6-.24-.6-.58v-1.22h-4.97v1.22c0,.33-.24,.58-.58,.58s-.6-.24-.6-.58v-1.22h-5.64c-.17,0-.3-.13-.3-.3s.13-.3,.3-.3Zm.25,18.55c3.21-.82,5.44-2.22,6.88-4.56h-3.71c-.17,0-.3-.13-.3-.3s.13-.3,.3-.3h4.04c.32-.61,.59-1.29,.82-2.02,.23-.78,1.4-.58,1.2,.3-.15,.61-.34,1.18-.59,1.73h4.81v-.25c.07-.76,1.31-.72,1.25,.12l-.18,2.71c-.14,2.19-2.09,3.25-4.86,2.58-.21-.05-.16-.39,.05-.39,2.23,0,3.47-.83,3.59-2.65l.1-1.52h-5.05c-1.56,2.95-4.48,4.57-8.31,4.88-.18,.02-.23-.28-.05-.32Zm14.43-13.62v-1.43h-10.65v1.43h10.65Zm0,2.14v-1.54h-10.65v1.54h10.65Z"/>
  <path d="M139.56,20.62c3.17-.97,7.43-3.23,9.09-5.52h-8.61c-.17,0-.3-.13-.3-.3s.13-.3,.3-.3h9.16v-1.5c0-.34,.25-.6,.62-.6s.62,.25,.62,.6v1.5h7.5c.44,0,.71-.18,.99-.18s.48,.21,.48,.48-.21,.48-.48,.48-.55-.18-.97-.18h-7.52v6.1c0,.37-.25,.62-.62,.62s-.62-.25-.62-.62v-4.83c-1.96,2.24-6.41,4.1-9.57,4.63-.25,.05-.28-.32-.07-.37Zm4.85-19.24c.28-.81,1.45-.46,1.2,.39-.81,2.6-3.13,5.64-5.94,7.04-.18,.09-.34-.17-.18-.3,2.23-1.79,4-4.6,4.92-7.13Zm-1.75,6.03c0-.35,.26-.6,.62-.6s.62,.25,.62,.6v3.96h5.98v-1.98h-5.13c-.17,0-.3-.14-.3-.32,0-.17,.13-.3,.3-.3h5.13v-1.73h-5.13c-.17,0-.3-.13-.3-.3s.13-.3,.3-.3h5.13v-1.77h-4.69c-.17,0-.3-.13-.3-.3s.13-.3,.3-.3h11.92c.44,0,.71-.18,.99-.18s.48,.21,.48,.48-.21,.48-.48,.48-.55-.18-.97-.18h-6v1.77h4.65c.44,0,.71-.16,.99-.16s.48,.19,.48,.46-.21,.48-.48,.48-.55-.18-.94-.18h-4.69v1.73h4.65c.44,0,.71-.16,.99-.16s.48,.2,.48,.46-.21,.48-.48,.48-.55-.16-.94-.16h-4.69v1.98h5.98c.44,0,.71-.18,.99-.18s.48,.21,.48,.48-.21,.48-.48,.48-.55-.18-.97-.18h-13.23v.76c0,.36-.26,.62-.62,.62s-.62-.26-.62-.62V7.41Zm8.81-6.07c.41-.76,1.47-.25,1.17,.51-.3,.78-1.27,1.5-2.35,1.86-.18,.06-.28-.16-.18-.28,.64-.76,.92-1.22,1.36-2.09Zm.05,14.54c1.96,1.5,5.02,2.83,7.64,3.5,.92,.23,.62,1.45-.23,1.31-2.74-.48-6.24-2.6-7.69-4.58-.1-.14,.1-.36,.28-.23Z"/>
</svg>