<?xml version="1.0" encoding="UTF-8"?>
<svg id="_圖層_3_拷貝_4" data-name="圖層 3 拷貝 4" xmlns="http://www.w3.org/2000/svg" viewBox="0 0 160.87 22.69">
  <path d="M28.77,11.35c4.53-2.42,7.71-5.94,9.5-10.01,.35-.78,1.54-.37,1.22,.48-1.68,4.35-5.71,8.28-10.58,9.89-.23,.07-.35-.25-.14-.37Zm.99,8.88h3.66V11.81c0-.37,.25-.62,.62-.62s.62,.25,.62,.62v8.42h3.87V7.5c0-.37,.25-.62,.62-.62s.62,.25,.62,.62v5.74h4.51c.48,0,.77-.2,1.09-.2s.53,.22,.53,.53-.22,.51-.53,.51-.61-.2-1.07-.2h-4.53v6.34h7.06c.51,0,.83-.21,1.13-.21,.32,0,.55,.22,.55,.53s-.23,.55-.55,.55c-.3,0-.62-.21-1.1-.21H29.76c-.21,0-.34-.14-.34-.34,0-.18,.14-.32,.34-.32ZM39.79,3.43c2.62,3.18,5.41,5.27,9.14,6.77,.87,.34,.48,1.61-.48,1.29-3.73-1.31-7.23-4.33-8.97-7.85-.09-.21,.18-.38,.32-.21Z"/>
  <path d="M56.71,11.46h5.87v-1.4h-4.65c-.17,0-.3-.13-.3-.3s.13-.3,.3-.3h4.65v-1.57h-4c-.17,0-.3-.13-.3-.3s.13-.3,.3-.3h4v-1.66h-5.52c-.17,0-.3-.13-.3-.3,0-.18,.13-.32,.3-.32h5.52v-1.61h-4c-.17,0-.3-.13-.3-.3s.13-.3,.3-.3h4V1.64c0-.33,.25-.58,.6-.58s.58,.24,.58,.58v1.17h3.06v-.07c0-.33,.25-.58,.6-.58s.58,.24,.58,.58v2.28h.78c.44,0,.71-.16,.99-.16s.48,.2,.48,.48c0,.26-.2,.46-.48,.46s-.55-.16-.97-.16h-.81v2.42c0,.35-.24,.6-.58,.6s-.6-.25-.6-.6v-.16h-3.06v1.57h3.64c.41,0,.69-.18,.97-.18s.48,.2,.48,.48-.2,.48-.48,.48-.55-.18-.94-.18h-3.66v1.4h4.88c.44,0,.71-.18,.99-.18s.48,.2,.48,.48-.2,.48-.48,.48-.55-.18-.97-.18h-11.94c-.17,0-.3-.13-.3-.3s.13-.3,.3-.3Zm13.12,7.92c.21-.05,.28,.3,.07,.37-3.43,1.29-7.94,1.66-12.63,1.59-.81-.02-.71-1.13-.02-1.13,4.67-.02,9-.14,12.59-.83Zm-11.04-6.1c0-.32,.24-.55,.58-.55s.55,.23,.55,.55v.07h6.65v-.07c0-.33,.24-.58,.58-.58s.55,.24,.55,.58v5.38c0,.32-.23,.55-.55,.55s-.58-.23-.58-.55v-.28h-6.65v.39c0,.33-.23,.58-.55,.58s-.58-.24-.58-.58v-5.5Zm3.87,2.25v-1.59h-2.74v1.59h2.74Zm0,2.25v-1.66h-2.74v1.66h2.74Zm4.17-12.77v-1.61h-3.06v1.61h3.06Zm0,2.28v-1.66h-3.06v1.66h3.06Zm-.25,8.24v-1.59h-2.78v1.59h2.78Zm0,2.25v-1.66h-2.78v1.66h2.78Zm3.94-13.83c0-.32,.23-.55,.55-.55s.58,.23,.58,.55v12.49c0,.32-.24,.55-.58,.55s-.55-.23-.55-.55V3.96Zm.64,17.33c2.28-.28,2.99-1.36,2.99-3.61V1.7c0-.33,.25-.58,.6-.58s.58,.24,.58,.58V18.16c0,2.6-1.79,4.05-4.17,3.5-.21-.05-.21-.35,0-.37Z"/>
  <path d="M85.5,21.29V2.15c0-.36,.25-.61,.61-.61s.59,.25,.59,.61v.22h14.98v-.22c0-.36,.25-.61,.61-.61s.59,.25,.59,.61V21.15c0,.35-.24,.59-.59,.59s-.61-.24-.61-.59v-.71h-14.98v.85c0,.34-.24,.59-.59,.59s-.61-.24-.61-.59Zm16.18-1.45V2.99h-14.98V19.84h14.98Zm-13.75-5.71h8.53v-.77c0-.36,.24-.61,.59-.61s.61,.25,.61,.61v.77h2.04c.44,0,.71-.18,.99-.18s.48,.2,.48,.48-.2,.48-.48,.48-.55-.18-.97-.18h-2.06v2.29c0,1.22-1.04,2.44-2.93,1.97-.17-.05-.15-.28,.02-.3,1.43-.21,1.71-.87,1.71-1.97v-1.99h-8.53c-.17,0-.3-.13-.3-.3s.13-.3,.3-.3Zm.02-9.3h5.66v-.74c0-.33,.24-.58,.58-.58s.55,.24,.55,.58v.74h4.73c.44,0,.71-.18,.99-.18s.48,.2,.48,.48-.2,.48-.48,.48-.55-.18-.97-.18h-4.75v1.22h3.53v-.14c0-.32,.23-.55,.55-.55s.53,.23,.53,.55v4.07c0,.31-.22,.53-.53,.53s-.55-.22-.55-.53v-.12h-3.53v1.57c.92-.07,1.83-.17,2.76-.31,.21-.02,.25,.28,.07,.32-2.85,.94-5.91,1.15-9.16,1.04-.67-.02-.64-.94,.05-.93,1.8,.05,3.49,.05,5.16-.05v-1.63h-3.41v.12c0,.32-.22,.55-.53,.55s-.55-.23-.55-.55V6.51c0-.32,.23-.55,.55-.55s.53,.23,.53,.55v.14h3.41v-1.22h-5.66c-.17,0-.3-.13-.3-.3s.13-.3,.3-.3Zm2.3,10.47c1.06,.25,2.48,.82,3.09,1.75,.52,.79-.45,1.45-.99,.79-.9-1.1-1.67-1.78-2.24-2.24-.14-.12-.05-.35,.14-.3Zm3.36-7.04v-1.01h-3.41v1.01h3.41Zm0,1.61v-1.01h-3.41v1.01h3.41Zm4.66-1.61v-1.01h-3.53v1.01h3.53Zm0,1.61v-1.01h-3.53v1.01h3.53Zm-.54,1.17c.97,.23,2.05,.85,2.51,1.7,.37,.67-.4,1.33-.92,.6-.45-.63-1.08-1.45-1.75-2.03-.09-.09-.05-.32,.16-.28Z"/>
  <path d="M112.44,2.35h4.72v-.09c.08-.81,1.25-.74,1.23,.05-.09,2.48-.85,4.81-2.62,6.3,3.29,2.14,3.96,5.52,2.53,7.29-.92,1.1-2.36,1.21-3.22,.41-.14-.13-.05-.37,.14-.32,.92,.23,1.61-.09,2.14-.85,1.17-1.7-.21-4.74-2.21-6.33-.09-.07-.14-.23-.05-.35,1.44-1.5,1.82-3.34,2.01-5.52h-4.67c-.17,0-.3-.13-.3-.3s.13-.3,.3-.3Zm.61,1.82c0-.35,.25-.6,.6-.6s.58,.25,.58,.6V21.33c0,.33-.24,.58-.58,.58s-.6-.24-.6-.58V4.17Zm8.96,16.94c1.08,0,2.76-.12,3.47-1.56,.51-1.07,.61-2.53,.44-4.11-2.21,2.42-5.51,3.77-8.8,3.99-.23,.01-.26-.32-.06-.37,3.34-.83,6.27-2.23,8.62-5.08-.15-.67-.33-1.35-.55-2.01-1.63,1.93-3.81,2.9-5.89,3.26-.21,.04-.28-.28-.07-.36,1.98-.81,3.99-2.17,5.45-4.25-.28-.66-.58-1.27-.9-1.83-1.4,1.27-3.09,2.09-4.81,2.49-.21,.05-.31-.26-.13-.36,2.46-1.22,4.41-2.88,5.5-4.69h-5.05c-.17,0-.3-.14-.3-.32,0-.17,.13-.3,.3-.3h6.64c1.25-1.25,2.03-2.67,2.55-4.03,.28-.74,1.4-.39,1.17,.44-.36,1.2-1.58,2.76-2.81,3.59h3.41c.44,0,.74-.16,1.01-.16s.48,.2,.48,.46c0,.29-.2,.48-.48,.48s-.58-.16-.97-.16h-4.48c-.4,.72-.89,1.38-1.43,1.96,.59,.81,1.09,1.74,1.51,2.73,1.53,3.36,3.42,5.42,5.98,7.26,.85,.62,.07,1.79-.71,1.22-1.99-1.45-3.2-2.95-4.2-4.97,.46,2.35,.39,4.58-.38,5.87-1.06,1.75-3.18,1.75-4.58,1.2-.21-.08-.18-.37,.05-.37Zm-1.36-19.9c1.27,.54,2.85,1.75,3.24,3.13,.21,.76-.78,1.15-1.17,.37-.6-1.22-1.37-2.27-2.25-3.22-.14-.15,.02-.35,.18-.28Zm8.44,6.81c.39-.76,1.5-.3,1.13,.55-.64,1.45-1.96,2.44-3.47,3.08-.2,.08-.32-.16-.18-.3,1.17-1.13,1.84-1.96,2.53-3.34Z"/>
</svg>