<?xml version="1.0" encoding="UTF-8"?>
<svg id="_圖層_6" data-name="圖層 6" xmlns="http://www.w3.org/2000/svg" viewBox="0 0 160.87 22.69">
  <defs>
    <style>
      .cls-1 {
        fill: #231815;
      }
    </style>
  </defs>
  <path class="cls-1" d="M36.07,1.91c.72-.13,1.41-.32,2.08-.55,.64-.23,1.14-.43,1.5-.6l.54-.22,2.16,1.42c-.05,.2-.13,.4-.23,.6,2.06,1.2,3.54,2.21,4.44,3.04,.36,.37,.77,.8,1.22,1.3,.45,.5,.8,.91,1.06,1.25l.42,.47c.36,.43,.69,.72,1,.87s.76,.22,1.35,.22c-.64,.12-1.29,.27-1.95,.47s-1.15,.37-1.49,.5l-.5,.2-1.77-1.25c-.67-1.66-1.29-3.01-1.85-4.04-.36-.63-1.02-1.6-1.97-2.89-.87,2.23-2.09,3.96-3.65,5.19-1.56,1.23-3.62,2.28-6.19,3.14l-.12-.05c1.26-.83,2.55-2.05,3.86-3.65,1.31-1.6,1.97-3.07,1.97-4.4,0-.68-.63-1.02-1.89-1.02Zm-3.7,11.02c.72-.13,1.44-.32,2.16-.57,.77-.25,1.35-.44,1.74-.57l.54-.2,1.93,1.4v7.45h1.62V10.41c0-.32-.22-.57-.66-.77-.44-.18-.99-.27-1.66-.27,.93-.18,1.66-.37,2.2-.55,.85-.27,1.4-.46,1.66-.57l.62-.22,1.93,1.4v3.84h5.71v.52h-5.71v6.66h5.71v.52h-17.25v-.52h1.77v-6.46c0-.33-.22-.59-.66-.77-.44-.18-.99-.27-1.66-.27Z"/>
  <path class="cls-1" d="M62.44,3.45v-.67c0-.32-.14-.57-.41-.76-.27-.19-.64-.29-1.1-.29,.62-.18,1.09-.37,1.43-.55,.62-.32,.95-.51,1-.57l.42-.22,1.27,1.4v1.67h3.94v2.17h1.08v-1.52c0-.32-.15-.57-.44-.76-.3-.19-.65-.29-1.06-.29,.46-.13,.94-.32,1.43-.55,.44-.22,.8-.41,1.08-.57l.39-.22,1.27,1.4V13.47c-.33,0-.82,.12-1.47,.37-.18,.08-.39,.21-.62,.37-.23,.2-.39,.37-.46,.5l-.12,.17v-2.22h-12.31v-.55h4.67v-1.6h-3.05v-.55h3.05v-1.65h-3.47v-.55h3.47v-1.65h-4.67v-.52h4.67v-1.62h-3.47v-.55h3.47Zm-4.67,17.35h12.46v.55h-12.46v-.55Zm8.72-1.87h-5.32c-.21,0-.67,.12-1.39,.35-.26,.08-.48,.22-.66,.4-.1,.08-.24,.24-.42,.47l-.12,.17v-6.58h10.49v5.19c-.41,0-.87,.12-1.39,.35-.28,.12-.49,.25-.62,.4-.1,.08-.24,.24-.42,.47l-.15,.17v-1.4Zm-4.05-3.07v-1.57h-.62c-.15-.02-.3,.06-.42,.22l-.23,.4v.95h1.27Zm-1.27,.55v1.32c0,.18,.08,.32,.23,.42l.39,.22h.66v-1.97h-1.27Zm3.9-10.79h1.35v-.97c0-.18-.09-.32-.27-.4l-.35-.25h-.73v1.62Zm5.02,.52h-1.08v2.19c-.23,0-.71,.12-1.43,.35-.23,.08-.42,.22-.58,.4-.1,.08-.24,.24-.42,.47l-.15,.17v-1.4h-1.35v1.65h3.55v.55h-3.55v1.6h5.02V6.14Zm-5.02,1.65h.69c.18,0,.3-.07,.35-.22l.31-.42v-1h-1.35v1.65Zm1.43,7.15c0-.18-.09-.32-.27-.42l-.31-.22h-.85v1.57h1.43v-.92Zm-1.43,1.47v1.97h.73c.15,0,.28-.07,.39-.22l.31-.42v-1.32h-1.43Zm7.25-14.68c.46-.13,.94-.31,1.43-.54,.49-.22,.85-.42,1.08-.59l.39-.22,1.23,1.4V21.15c-.33,0-.81,.12-1.43,.35-.18,.08-.39,.21-.62,.39-.23,.17-.39,.34-.46,.49l-.12,.17V2.78c0-.32-.15-.57-.44-.76-.3-.19-.65-.29-1.06-.29Z"/>
  <path class="cls-1" d="M98.79,21.15h-10.26c-.57,0-1.31,.12-2.24,.35-.33,.08-.66,.22-.96,.4-.05,.02-.27,.17-.66,.47l-.23,.17V2.21h18.44V21.15c-.57,0-1.31,.12-2.24,.35-.33,.08-.66,.22-.96,.4-.05,.02-.27,.17-.66,.47l-.23,.17v-1.4Zm-1.85-.55c.59-.08,1.02-.2,1.27-.35,.13-.08,.23-.2,.31-.35,.15-.2,.23-.32,.23-.35l.04-.15V3.95c-.15-.38-.35-.66-.58-.82-.13-.08-.3-.15-.5-.21-.21-.06-.39-.1-.54-.11l-.23-.05h-6.56c-.59,.1-1.02,.22-1.27,.37-.13,.08-.23,.19-.31,.32-.15,.2-.23,.32-.23,.35l-.04,.15v15.46c.15,.4,.35,.68,.58,.85,.13,.08,.3,.15,.5,.21,.21,.06,.39,.1,.54,.11l.23,.02h6.56Z"/>
  <path class="cls-1" d="M93.46,3.19c.01,.05,.18,.23,.51,.53s.52,.46,.6,.49v1.64h3.92v.4h-3.92v1.19h3.34v5.68h-.91v1.28h1.5v.41h-1.5v4.5c-.65,.13-1.11,.28-1.39,.47-.32,.24-.54,.43-.67,.56v-5.53h-6.11v-.41h6.11v-1.26h-5.62V7.42h3.19v-1.19h-3.69v-.4h3.69v-.98c-.06-.33-.21-.52-.46-.59-.25-.07-.59-.1-1.02-.1,.17-.01,.6-.16,1.29-.45,.69-.29,1.07-.46,1.14-.53Zm-3.62,13.04c.78-.21,1.45-.49,1.99-.83l.26-.17,1.17,1.05,.39,.98c-.69,.11-1.17,.45-1.43,1l-.22,.81-.09-.53c-.27-.99-.62-1.62-1.03-1.9-.41-.28-.76-.41-1.05-.41Zm2.6-8.41c-.26,.08-.46,.18-.61,.3l-.35,.49v1.43h1.02v-2.22h-.07Zm-.95,4.12c.16,.43,.48,.69,.95,.79h.07v-2.28h-1.02v1.49Zm4.23-3.35c-.17-.43-.48-.69-.93-.79h-.22v2.24h1.15v-1.45Zm-1.15,4.1c.46,0,.79-.16,1-.49,.09-.14,.14-.24,.15-.3v-1.45h-1.15v2.24Z"/>
  <path class="cls-1" d="M116.39,13.77v3.59l-1.35,1.45c-.82-.58-1.72-1.02-2.7-1.32v3.69c-.23,0-.75,.12-1.54,.35-.28,.08-.5,.22-.66,.4-.18,.17-.32,.32-.42,.47l-.19,.17V1.81h6.87v.6c-.03,1.11-.4,2.19-1.12,3.24-.69,1-1.67,1.8-2.93,2.42v.07c1.31,.61,2.29,1.42,2.93,2.42,.72,1.03,1.09,2.1,1.12,3.22Zm-4.05-6.03c.87-1.11,1.3-2.64,1.27-4.59v-.8h-1.27V7.74Zm0,.72v8.97c.36-.02,.66-.11,.89-.27,.28-.18,.41-.43,.39-.75v-3.39c.03-1.93-.4-3.45-1.27-4.56Zm15.01-3.29v.52h-5.09c-.72,1.21-1.41,2.2-2.08,2.97-1.23,1.35-2.83,2.42-4.78,3.22l-.08-.1c.95-.71,1.97-1.87,3.05-3.47,.57-.86,1.04-1.74,1.43-2.62h-3.7v-.52h3.55c-.39-1.25-.87-2.08-1.47-2.49-.52-.35-1.04-.52-1.58-.52,.85-.22,1.76-.59,2.74-1.12l.39-.2,1.47,1.4,.5,1.3c-.46,.08-.86,.24-1.2,.47-.28,.22-.5,.61-.66,1.17h3.12c.31-.58,.5-1.12,.58-1.62,.1-.56,.13-.97,.08-1.22-.1-.6-.52-.9-1.23-.9,1.05-.3,1.88-.67,2.47-1.12l.27-.2,1.39,1.4c0,1.06-.18,1.75-.54,2.04-.31,.27-1.18,.81-2.62,1.62h4.01Zm-6.94,9.4v-.4c.03-.45,.04-.86,.04-1.25-.41,.4-.82,.75-1.23,1.05-.93,.66-2.12,1.29-3.59,1.87l-.12-.07c.85-.56,1.79-1.46,2.82-2.69,.82-.98,1.5-1.96,2.04-2.94,0-.05-.01-.09-.04-.12-.15-.91-.42-1.72-.81-2.42l.04-.1c1.26,.8,2.07,1.52,2.43,2.17,.69,1.21,1.11,2.53,1.23,3.96,.05,.52,.08,1.05,.08,1.6v5.88l-1.43,1.45-.35-.25c-.28-.17-.68-.36-1.2-.57-.52-.22-1.04-.39-1.58-.52,.49,0,.89-.1,1.2-.29,.31-.19,.46-.44,.46-.76v-2.99c-.41,.37-.81,.7-1.2,1-.93,.66-2.12,1.29-3.59,1.87l-.12-.07c.82-.57,1.83-1.52,3.01-2.87,.75-.86,1.38-1.7,1.89-2.52Zm7.1-7.78c-.28,1.71-.57,2.77-.85,3.17-.1,.13-.31,.49-.62,1.07-.08,.13-.24,.36-.5,.67,.05,.13,.1,.27,.15,.4,.31,.8,.54,1.45,.69,1.97,.23,.98,.42,1.81,.58,2.49l.23,.77c.1,.37,.3,.66,.58,.87,.18,.13,.5,.22,.96,.25-.44,.13-.91,.28-1.43,.45-.57,.22-.95,.37-1.16,.47l-.31,.2-1.16-1.25c-.39-3.51-.64-5.61-.77-6.31l-1.27-5.78c.77,.95,1.63,2.52,2.58,4.71,.03-.08,.04-.17,.04-.25,.1-.88,.15-1.72,.15-2.52,0-.18-.12-.29-.35-.32l-.42-.07c.77-.18,1.26-.31,1.47-.37l1.39-.62Z"/>
</svg>