<?xml version="1.0" encoding="UTF-8"?>
<svg id="_圖層_5" data-name="圖層 5" xmlns="http://www.w3.org/2000/svg" viewBox="0 0 368.38 91.81">
  <g>
    <path d="M36.79,24.73c2.27-1.14,3.65-2.77,4.32-5.01-1.42,.65-3.04,1.03-4.47,1.14-.61,.04-.67-.81-.09-.88,1.76-.22,3.38-.6,4.78-1.16,.16-.82,.25-1.72,.26-2.69h-4.34c-.14,0-.25-.11-.25-.25s.11-.25,.25-.25h4.34v-3.15h-4.88c-.14,0-.25-.11-.25-.25s.11-.25,.25-.25h4.88v-2.67c0-.29,.2-.49,.49-.49s.49,.2,.49,.49v6.91c0,.75-.04,1.46-.14,2.12,.39-.2,.76-.41,1.1-.64,.14-.09,.31,.1,.19,.23-.4,.44-.89,.83-1.43,1.17-.64,2.93-2.4,4.9-5.4,5.92-.15,.05-.27-.2-.09-.29Zm8.55-15.43c0-.29,.2-.49,.49-.49s.49,.2,.49,.49v2.67h3.89c.36,0,.59-.14,.83-.14s.4,.16,.4,.4-.16,.4-.4,.4-.47-.14-.81-.14h-3.91v3.15h3.28c.36,0,.58-.14,.81-.14s.4,.16,.4,.4-.16,.4-.4,.4-.45-.14-.77-.14h-3.31v3.17h4.2c.38,0,.61-.14,.85-.14s.4,.16,.4,.4-.16,.4-.4,.4-.47-.14-.83-.14h-4.21v4.68c0,.29-.2,.49-.49,.49s-.49-.2-.49-.49V9.3Z"/>
    <path d="M55.15,11.03c0-.29,.2-.49,.49-.49s.49,.2,.49,.49v.23h11.97v-.22c0-.3,.2-.5,.49-.5s.49,.21,.49,.5v3.28c0,.27-.2,.47-.49,.47s-.49-.2-.49-.47v-2.59h-11.97v2.52c0,.27-.2,.47-.49,.47s-.49-.2-.49-.47v-3.22Zm2.47,13.4V13.53c0-.3,.2-.5,.49-.5s.49,.21,.49,.5v.23h6.88v-.23c0-.3,.2-.5,.49-.5s.49,.21,.49,.5v3.98c0,.3-.2,.5-.49,.5s-.49-.21-.49-.5v-.18h-6.88v2.14h7.8v-.18c0-.3,.2-.5,.49-.5s.49,.21,.49,.5v4.97c0,.29-.2,.49-.49,.49s-.49-.2-.49-.49v-.88h-7.8v1.04c0,.29-.2,.49-.49,.49s-.49-.2-.49-.49Zm7.85-7.56v-2.63h-6.88v2.63h6.88Zm.92,6.05v-2.97h-7.8v2.97h7.8Zm-5.85-14.28c1.1,.13,2.21,.7,2.72,1.48,.38,.58-.29,1.17-.79,.63-.59-.63-1.26-1.34-2.02-1.84-.14-.09-.07-.29,.09-.27Z"/>
    <path d="M72.43,24.7c1.84-1.11,3.4-2.73,4.3-4.87,.78-1.9,1.14-4.05,1.29-6.61h-4.96c-.16,0-.27-.11-.27-.25,0-.16,.11-.27,.27-.27h13.48c.36,0,.63-.16,.86-.16s.42,.18,.42,.43-.17,.41-.42,.41-.5-.16-.85-.16h-7.52c-.13,2.75-.52,5.04-1.36,6.95-1.04,2.39-2.9,4.03-5.13,4.81-.16,.05-.28-.19-.13-.28Zm5.69-16.05c1.33,.34,3.1,1.55,3.62,2.68,.29,.61-.47,1.15-.9,.58-.72-.97-1.82-2.27-2.83-3.01-.13-.09-.04-.29,.11-.25Zm1.37,7.47h5.19l.03-.4c.04-.66,1.05-.6,1.01,.07l-.29,4.84c-.21,3.49-2.66,4.43-5.56,3.73-.18-.04-.13-.29,.04-.29,3.22,0,4.33-1.12,4.52-3.96l.22-3.48h-5.16c-.14,0-.25-.11-.25-.27,0-.14,.11-.25,.25-.25Z"/>
    <path d="M90.68,24.62c3.1-.6,5.59-1.59,6.69-3.83h-6.37c-.14,0-.25-.11-.25-.25s.11-.25,.25-.25h6.58c.11-.31,.2-.63,.26-.97,.11-.63,1.01-.49,.94,.13-.04,.3-.09,.58-.16,.85h6.32c.36,0,.59-.14,.81-.14,.23,0,.4,.16,.4,.4s-.16,.4-.4,.4c-.22,0-.45-.14-.79-.14h-6.5c-1.07,2.76-4.35,4.08-7.74,4.12-.16,0-.2-.25-.04-.29Zm2.18-13.9c0-.27,.19-.47,.45-.47s.47,.2,.47,.47v.2h9.36v-.2c0-.27,.19-.47,.45-.47s.47,.2,.47,.47v8.43c0,.26-.2,.45-.47,.45s-.45-.19-.45-.45v-7.76h-9.36v7.76c0,.26-.2,.45-.47,.45s-.45-.19-.45-.45V10.72Zm1.84,4.5h3.37v-1.44c0-.23,.16-.4,.4-.4s.4,.16,.4,.4v1.44h2.56c.34,0,.56-.13,.77-.13s.38,.15,.38,.36c0,.23-.15,.38-.38,.38s-.43-.13-.76-.13h-2.57v2.56c0,.23-.16,.4-.4,.4s-.4-.16-.4-.4v-1.85c-.71,.95-1.9,1.77-3.42,2.28-.14,.04-.24-.19-.09-.27,1.39-.79,2.43-1.76,3.09-2.72h-2.94c-.14,0-.23-.11-.23-.25,0-.13,.1-.23,.23-.23Zm.25-2.25c1.82-.14,4.45-.63,6.1-1.22,.49-.16,.74,.54,.25,.76-1.37,.58-4.59,.88-6.36,.74-.14-.02-.16-.25,0-.27Zm.82,.46c.58,.2,1.16,.55,1.38,1,.26,.54-.44,.87-.74,.34-.21-.37-.48-.79-.77-1.15-.08-.1,.02-.23,.13-.19Zm2.93-4.69c.44-.54,1.25,0,.81,.63-.41,.58-1.41,1.06-2.23,1.23-.18,.04-.24-.17-.13-.26,.61-.49,1.14-1.1,1.55-1.6Zm.49,12.46c1.81,1.46,4.07,2.1,6.7,2.57,.72,.13,.63,1.18-.19,1.06-2.68-.39-5.23-1.5-6.74-3.43-.11-.14,.08-.32,.23-.2Zm.4-4.99c.92,.23,2.07,.72,2.59,1.44,.32,.47-.22,1.03-.67,.56-.67-.72-1.39-1.36-2.02-1.8-.1-.07-.04-.23,.09-.2Zm.98-2.78c.27-.5,1.04-.12,.73,.45-.26,.45-.85,.95-1.6,1.21-.1,.04-.23-.07-.13-.19,.41-.45,.76-1.02,1-1.47Z"/>
    <path d="M113.09,14.72h-3.64c-.14,0-.25-.11-.25-.25s.11-.25,.25-.25h3.87v-2.38c0-.27,.2-.47,.47-.47,.3,0,.5,.2,.5,.47v2.38h2.68c.36,0,.58-.14,.81-.14s.4,.16,.4,.4-.16,.4-.4,.4-.45-.14-.79-.14h-2.7v9.83c0,.27-.21,.47-.5,.47-.27,0-.47-.2-.47-.47v-7.68c-.97,2.21-2.61,4.29-4.41,5.41-.16,.09-.31-.11-.2-.23,2.03-2.03,3.46-4.35,4.38-7.33Zm3.38-5.83c.58-.32,1.01,.47,.5,.81-1.89,1.21-4.66,1.78-7.33,1.82-.18,0-.2-.25-.02-.29,2.41-.43,5.06-1.28,6.84-2.34Zm-1.4,7.04c1.04,.61,2.18,1.53,2.58,2.66,.23,.65-.65,.99-.92,.36-.47-1.03-1.01-1.82-1.84-2.79-.11-.14,.04-.31,.18-.23Zm4.07-5.35c0-.26,.19-.45,.45-.45s.47,.19,.47,.45v10.37c0,.26-.2,.45-.47,.45s-.45-.19-.45-.45V10.58Zm.85,13.88c1.89-.23,2.48-1.13,2.48-3.01V9.28c0-.29,.21-.49,.5-.49,.27,0,.47,.2,.47,.49v12.57c0,2.16-1.5,3.37-3.46,2.92-.18-.04-.18-.29,0-.31Z"/>
    <path d="M127.06,24.59c2.95-1.11,5.33-2.46,7.16-4.33-1.59-1.62-2.82-3.66-3.64-6.25-.06-.19,.23-.29,.32-.11,1.16,2.37,2.39,4.21,3.93,5.68,1.48-1.73,2.54-3.87,3.2-6.6h-10.42c-.16,0-.27-.11-.27-.27,0-.14,.11-.25,.27-.25h13.27c.4,0,.63-.16,.88-.16s.43,.17,.43,.41-.18,.43-.43,.43-.49-.16-.85-.16h-1.8c-.69,2.98-1.88,5.39-3.53,7.27,1.73,1.43,3.84,2.49,6.63,3.33,.74,.23,.47,1.31-.29,1.08-2.74-.85-5.09-2.04-7-3.73-2.02,1.99-4.64,3.29-7.81,3.96-.2,.04-.28-.23-.07-.32Zm5.83-15.87c1.13,.36,2.51,1.23,3.1,2.3,.41,.76-.44,1.27-.86,.65-.7-1.04-1.67-2.14-2.36-2.74-.11-.1-.02-.26,.13-.22Z"/>
    <path d="M145.45,23.42h7.23v-4.95h-4.98c-.15,0-.26-.11-.26-.26,0-.16,.11-.28,.26-.28h4.98v-4.42h-3.03c-.16,0-.28-.11-.28-.25,0-.16,.12-.29,.28-.29h3.03v-3.75c0-.29,.22-.5,.5-.5s.5,.22,.5,.5v3.75h4.3c.4,0,.67-.16,.92-.16,.23,0,.41,.17,.41,.41,0,.26-.18,.45-.41,.45-.25,0-.52-.16-.9-.16h-4.32v4.42h3.66c.41,0,.66-.17,.92-.17s.43,.19,.43,.45c0,.24-.18,.41-.43,.41s-.5-.15-.86-.15h-3.71v4.95h5.7c.4,0,.66-.17,.93-.17s.47,.2,.47,.47c0,.25-.2,.43-.47,.43s-.53-.17-.9-.17h-13.96c-.18,0-.3-.13-.3-.28,0-.17,.12-.28,.3-.28Zm.13-6.38c1.67-1.93,2.58-4.38,3.1-7.2,.13-.67,1.12-.54,1.01,.23-.41,2.7-1.73,5.73-3.87,7.22-.18,.13-.35-.12-.23-.25Z"/>
    <path d="M165.8,23.92V9.77c0-.31,.2-.52,.49-.52,.31,0,.52,.22,.52,.52v.22h8.77v-.22c0-.31,.2-.52,.49-.52,.31,0,.52,.22,.52,.52v13.95c0,.31-.22,.52-.52,.52-.29,0-.49-.22-.49-.52v-1.13h-8.77v1.33c0,.31-.22,.52-.52,.52-.29,0-.49-.22-.49-.52Zm9.78-7.89v-5.54h-8.77v5.54h8.77Zm0,6.05v-5.54h-8.77v5.54h8.77Z"/>
    <path d="M183.01,14.34v-3.58c0-.26,.19-.45,.45-.45s.47,.14,.47,.4v.13h11.67c.34,0,.58-.14,.79-.14s.38,.16,.38,.38-.16,.4-.38,.4-.45-.14-.77-.14h-3.92v1.24h2.77v-.16c0-.26,.19-.45,.45-.45s.43,.19,.43,.45v2.36c0,.25-.18,.43-.43,.43s-.45-.18-.45-.43v-.13h-10.53v.81h11.87l.05-.18c.2-.65,1.04-.38,.9,.22-.14,.61-.63,1.28-1.48,1.69-.11,.05-.22-.09-.16-.2,.29-.47,.41-.72,.53-1.06h-11.71c-.04,3.89-.31,6.77-2.47,8.97-.16,.16-.36-.04-.25-.2,1.75-2.52,1.8-5.69,1.8-10.33Zm.05,10.28c2.43-.25,4.55-.73,6.35-1.56-.6-.39-1.16-.86-1.65-1.41-.11-.14,.07-.32,.22-.23,.72,.52,1.45,.94,2.21,1.25,1.01-.55,1.9-1.23,2.68-2.08h-4.04c-.13,0-.23-.1-.23-.23s.1-.23,.23-.23h4.46l.23-.29c.38-.49,1.15,.05,.77,.56-.84,1.13-1.85,2-3.03,2.67,1.72,.54,3.55,.71,5.55,.8,.63,.02,.65,1.01-.05,.99-2.21-.07-4.52-.36-6.46-1.31-2.04,.92-4.47,1.32-7.21,1.36-.18,0-.2-.27-.02-.29Zm3.85-12.06v-1.24h-2.99v1.24h2.99Zm0,1.6v-1.13h-2.99v1.13h2.99Zm1.04,4.82c-.53-.3-.83-.8-.83-1.47v-.7c0-.24,.17-.41,.41-.41s.43,.17,.43,.41v.59c0,.78,.44,1,1.24,1.04,.88,.05,1.48,.04,2.47,0,.95-.04,1.17-.32,1.39-.84,.04-.11,.2-.09,.22,0,.23,.96-.54,1.6-1.6,1.66-.99,.05-1.58,.04-2.58,0l-.31-.03c-.92,1.88-2.57,3.05-4.61,3.57-.18,.04-.25-.17-.09-.26,1.8-.87,2.98-2.05,3.85-3.56Zm-1.69-2.3c.07-.14,.23-.09,.23,.02,0,1.04-.45,2.12-1.44,2.74-.5,.29-.9-.4-.47-.74,.85-.63,1.35-1.28,1.67-2.02Zm4.54-4.12v-1.24h-3.01v1.24h3.01Zm0,1.6v-1.13h-3.01v1.13h3.01Zm-2.77-5.49c1.07,.14,2.08,.47,2.57,1.04,.53,.61-.15,1.28-.67,.8-.72-.67-1.34-1.19-1.98-1.58-.14-.09-.06-.27,.07-.25Zm1.26,7.49c.72,.09,1.58,.32,2.09,.9,.43,.49-.18,1.1-.67,.61s-.98-.91-1.51-1.26c-.13-.09-.05-.27,.09-.25Zm5.17-2v-1.13h-2.77v1.13h2.77Zm-1.01,2.52c.92,.31,1.87,.83,2.36,1.73,.27,.49-.38,1.01-.76,.47-.54-.77-1.06-1.41-1.71-1.98-.12-.11-.02-.25,.11-.22Z"/>
    <path d="M199.47,19.84c2.48-2.14,4.12-4.31,5.15-7.16h-4.3c-.14,0-.23-.1-.23-.23s.1-.23,.23-.23h4.46l.07-.22c.18-.61,1.08-.34,.9,.27-.47,1.61-1.2,3.16-2.29,4.56v7.63c0,.27-.2,.47-.47,.47s-.45-.2-.45-.47v-6.6c-.81,.82-1.77,1.57-2.92,2.22-.14,.08-.3-.13-.16-.24Zm2.07-11.11c.97,.49,1.83,1.43,2.1,2.44,.19,.69-.69,.95-.93,.32-.38-1.01-.86-1.88-1.35-2.55-.09-.13,.04-.28,.18-.21Zm2.63,7.84c.9,.36,1.78,1.13,2.11,2.03,.22,.63-.57,1-.88,.4-.43-.83-.77-1.53-1.37-2.21-.1-.12,.02-.27,.14-.22Zm4.59,.47c.05-.65,.97-.56,.94,.09-.18,3.64-1.48,6.52-5.53,7.81-.16,.05-.25-.21-.09-.29,3.4-1.73,4.34-3.96,4.68-7.62Zm-2.05-6.77c0-.26,.19-.45,.45-.45s.45,.19,.45,.45v.31h5.44v-.31c0-.26,.2-.45,.47-.45s.45,.19,.45,.45v6.28c0,.26-.19,.45-.45,.45s-.47-.19-.47-.45v-.54h-1.24v6.54c0,.77,.34,1.12,1.21,1.12h.51c1.03,0,1.48-.58,1.66-2.32,.02-.18,.27-.2,.29,0,.25,2.27-.4,3.21-1.94,3.21h-.59c-1.21,0-2.05-.67-2.05-1.89v-6.64h-3.28v.54c0,.26-.19,.45-.45,.45s-.45-.19-.45-.45v-6.28Zm6.34,5.28v-4.5h-5.44v4.5h5.44Z"/>
    <path d="M217.57,24.67c1.75-2.52,1.8-5.4,1.8-9.47v-4.68c0-.26,.19-.45,.45-.45s.47,.19,.47,.45v.23h11.92c.34,0,.58-.14,.81-.14s.4,.16,.4,.4-.16,.4-.4,.4-.47-.14-.79-.14h-11.94v4.32c0,3.93-.09,6.88-2.47,9.29-.16,.16-.36-.04-.25-.2Zm4.19-4.09c.04-.13,.25-.13,.26,.02,.07,1.39-.47,3.02-1.64,3.71-.59,.32-.99-.4-.58-.76,1.04-.85,1.59-1.73,1.95-2.97Zm1.12-8.52c.16-.59,1.04-.4,.9,.27-.4,1.71-1.64,3.56-3.01,4.27-.16,.07-.27-.13-.16-.23,1.08-1.12,1.85-2.9,2.27-4.3Zm-.81,4.07c0-.27,.2-.47,.47-.47s.45,.2,.45,.47v3.08c0,.26-.19,.45-.45,.45s-.47-.19-.47-.45v-3.08Zm1.17,4.25c0-.26,.19-.45,.45-.45s.47,.19,.47,.45v1.58c0,1.12,.47,1.6,1.83,1.67,.57,.04,1.9,.04,2.43,0,1.21-.09,1.63-.71,1.83-1.97,.02-.14,.23-.13,.27,.02,.41,1.73-.58,2.74-2.04,2.83-.61,.04-1.96,.04-2.57,0-1.8-.11-2.67-.9-2.67-2.45v-1.67Zm2.38-8.32c.16-.59,1.04-.4,.9,.27-.4,1.71-1.64,3.56-3.01,4.27-.16,.07-.27-.13-.16-.23,1.08-1.12,1.85-2.9,2.27-4.3Zm-1.22-3.44c1.08,.07,2.14,.4,2.7,.97,.54,.56-.16,1.24-.65,.79-.81-.74-1.35-1.15-2.11-1.53-.13-.06-.08-.24,.05-.23Zm.49,7.42c0-.26,.2-.45,.47-.45s.45,.19,.45,.45v2.34h2.79v-1.31h-2.18c-.13,0-.23-.1-.23-.23s.1-.23,.23-.23h2.18v-1.21h-2.18c-.13,0-.23-.1-.23-.23s.1-.23,.23-.23h2.18v-1.24h-1.91c-.13,0-.23-.1-.23-.23s.1-.23,.23-.23h1.95c.35-.42,.63-.84,.89-1.3,.31-.61,1.12-.2,.83,.34-.22,.41-.63,.74-1.08,.95h1.96c.34,0,.56-.14,.77-.14s.38,.15,.38,.38c0,.21-.15,.36-.38,.36s-.43-.13-.76-.13h-1.75v1.24h1.21c.34,0,.56-.14,.77-.14s.38,.15,.38,.38-.15,.38-.38,.38-.43-.14-.74-.14h-1.24v1.21h1.21c.34,0,.56-.14,.77-.14s.38,.15,.38,.38-.15,.38-.38,.38-.43-.14-.74-.14h-1.24v1.31h2.11c.34,0,.56-.14,.77-.14s.38,.15,.38,.38-.15,.38-.38,.38-.43-.14-.76-.14h-5.83v.36c0,.26-.19,.45-.45,.45s-.47-.19-.47-.45v-3.17Zm1.12,3.8c1.06,.23,2.23,.81,2.77,1.73,.29,.5-.38,1.08-.76,.59-.81-1.04-1.24-1.49-2.12-2.11-.09-.06-.04-.25,.11-.22Zm4.66,.56c1.28,.54,2.36,1.49,2.9,2.79,.23,.58-.54,1.03-.88,.38-.61-1.13-1.19-2.04-2.16-2.94-.1-.1,0-.29,.14-.23Z"/>
    <path d="M236.39,12.72h2.32v-3.58c0-.26,.2-.45,.47-.45s.45,.19,.45,.45v3.58h1.26c.34,0,.56-.14,.77-.14s.38,.15,.38,.38c0,.21-.15,.36-.38,.36s-.43-.13-.76-.13h-1.28v3.33c.69-.39,1.3-.81,1.94-1.3,.18-.14,.39,.07,.24,.25-.6,.73-1.34,1.4-2.19,1.96v4.61c0,2.09-1.24,3.19-3.17,2.7-.16-.04-.14-.27,0-.27,1.82-.09,2.25-.92,2.25-2.77v-3.74c-.65,.33-1.35,.6-2.11,.8-.65,.16-.9-.7-.23-.9,.91-.28,1.67-.57,2.34-.88v-3.8h-2.32c-.14,0-.23-.1-.23-.23s.1-.23,.23-.23Zm5.44,11.88c1.71-.45,3.3-1.16,4.61-2.14-.86-.75-1.55-1.6-1.94-2.52-.05-.14,.13-.28,.23-.15,.64,.85,1.44,1.55,2.34,2.14,.87-.77,1.58-1.71,2.05-2.8h-4.92c-.72,2.4-2.05,4.29-4.3,5.58-.16,.09-.34-.11-.2-.23,2.42-2.09,3.5-4.22,3.99-7.33h-2.15c-.13,0-.23-.1-.23-.23s.1-.23,.23-.23h2.22c.06-.51,.12-1.05,.16-1.62h-1.49c-.14,0-.23-.1-.23-.23,0-.14,.1-.25,.23-.25h7.42c.34,0,.56-.13,.77-.13s.38,.15,.38,.38c0,.21-.15,.36-.38,.36s-.43-.13-.76-.13h-5.01c-.03,.56-.08,1.1-.15,1.62h5.74c.34,0,.56-.14,.77-.14s.38,.15,.38,.38-.15,.38-.38,.38-.43-.14-.76-.14h-5.83c-.08,.52-.19,1.03-.31,1.51h4.98l.06-.18c.18-.54,1.03-.32,.86,.29-.39,1.41-1.21,2.66-2.35,3.66,1.08,.59,2.29,1.05,3.56,1.4,.65,.18,.42,1.13-.25,.99-1.43-.32-2.86-.96-4.06-1.82-1.43,1.01-3.24,1.67-5.25,1.89-.16,.02-.22-.25-.05-.29Zm.2-13.83c2.65-.27,6.25-.94,8.21-1.85,.63-.29,.99,.56,.47,.83-2.13,1.1-5.83,1.46-8.68,1.35-.18,0-.22-.31,0-.32Zm1.22,.86c.8,.39,1.52,1,1.82,1.89,.21,.61-.64,.96-.89,.33-.32-.82-.67-1.46-1.1-2.02-.09-.13,.06-.27,.17-.21Zm2.49-.3c.76,.43,1.43,1.15,1.62,2.09,.14,.69-.71,.89-.92,.25-.25-.79-.46-1.42-.88-2.14-.08-.13,.05-.27,.18-.2Zm3.83-.19c.2-.6,1.08-.38,.88,.29-.4,1.3-1.12,2.2-2.23,2.83-.11,.06-.24-.07-.15-.19,.79-1.02,1.15-1.84,1.5-2.93Z"/>
    <path d="M254.07,16.7c3.55-1.89,6.03-4.65,7.44-7.83,.27-.61,1.21-.29,.95,.38-1.31,3.4-4.46,6.48-8.28,7.74-.18,.05-.27-.2-.11-.29Zm.77,6.95h2.86v-6.59c0-.29,.2-.49,.49-.49s.49,.2,.49,.49v6.59h3.03V13.69c0-.29,.2-.49,.49-.49s.49,.2,.49,.49v4.49h3.53c.38,0,.6-.15,.86-.15s.41,.17,.41,.41-.17,.4-.41,.4-.48-.15-.84-.15h-3.55v4.96h5.53c.4,0,.65-.16,.88-.16,.25,0,.43,.17,.43,.41s-.18,.43-.43,.43c-.23,0-.49-.16-.86-.16h-13.38c-.16,0-.27-.11-.27-.27,0-.14,.11-.25,.27-.25Zm7.85-13.14c2.05,2.48,4.23,4.12,7.15,5.29,.68,.27,.38,1.26-.38,1.01-2.92-1.03-5.65-3.38-7.02-6.14-.07-.16,.14-.3,.25-.16Z"/>
    <path d="M272.52,16.79h4.59v-1.1h-3.64c-.13,0-.23-.1-.23-.23s.1-.23,.23-.23h3.64v-1.22h-3.13c-.14,0-.23-.1-.23-.23s.1-.23,.23-.23h3.13v-1.3h-4.32c-.14,0-.23-.1-.23-.23,0-.14,.1-.25,.23-.25h4.32v-1.26h-3.13c-.14,0-.23-.1-.23-.23s.1-.23,.23-.23h3.13v-.92c0-.26,.2-.45,.47-.45s.45,.19,.45,.45v.92h2.39v-.05c0-.26,.2-.45,.47-.45s.45,.19,.45,.45v1.78h.61c.34,0,.56-.13,.77-.13s.38,.15,.38,.38c0,.21-.15,.36-.38,.36s-.43-.13-.76-.13h-.63v1.89c0,.27-.19,.47-.45,.47s-.47-.2-.47-.47v-.13h-2.39v1.22h2.84c.32,0,.54-.14,.76-.14s.38,.15,.38,.38-.15,.38-.38,.38-.43-.14-.74-.14h-2.86v1.1h3.82c.34,0,.56-.14,.77-.14s.38,.15,.38,.38-.15,.38-.38,.38-.43-.14-.76-.14h-9.34c-.13,0-.23-.1-.23-.23s.1-.23,.23-.23Zm10.26,6.19c.16-.04,.22,.23,.05,.29-2.68,1.01-6.21,1.3-9.88,1.24-.63-.02-.56-.88-.02-.88,3.66-.02,7.04-.11,9.85-.65Zm-8.64-4.77c0-.25,.19-.43,.45-.43s.43,.18,.43,.43v.05h5.2v-.05c0-.26,.19-.45,.45-.45s.43,.19,.43,.45v4.21c0,.25-.18,.43-.43,.43s-.45-.18-.45-.43v-.22h-5.2v.31c0,.26-.18,.45-.43,.45s-.45-.19-.45-.45v-4.3Zm3.03,1.76v-1.24h-2.14v1.24h2.14Zm0,1.76v-1.3h-2.14v1.3h2.14Zm3.26-9.99v-1.26h-2.39v1.26h2.39Zm0,1.78v-1.3h-2.39v1.3h2.39Zm-.2,6.45v-1.24h-2.18v1.24h2.18Zm0,1.76v-1.3h-2.18v1.3h2.18Zm3.08-10.82c0-.25,.18-.43,.43-.43s.45,.18,.45,.43v9.78c0,.25-.19,.43-.45,.43s-.43-.18-.43-.43V10.92Zm.5,13.56c1.78-.22,2.34-1.06,2.34-2.83V9.15c0-.26,.2-.45,.47-.45s.45,.19,.45,.45v12.87c0,2.04-1.41,3.17-3.26,2.74-.16-.04-.16-.27,0-.29Z"/>
    <path d="M290.49,22.98c3.89-4.09,5.85-6.16,6.14-8.77,.27-2.21-1.26-3.1-2.88-3.1-.79,0-2.06,.41-3.14,1.69-.13,.14-.33,0-.28-.14,.65-1.71,2.5-2.56,3.85-2.56,2.14,0,3.91,1.44,3.71,3.82-.16,2.04-1.67,3.76-3.01,5.35-1.12,1.33-2.2,2.48-2.97,3.29h5.11c.56,0,.89-.3,1.12-.95,.07-.2,.31-.14,.32,.02,.09,1.5-.29,2.02-1.28,2.02h-6.45c-.36,0-.51-.39-.25-.67Z"/>
    <path d="M300.72,16.93c0-4.38,2.05-6.84,5.31-6.84s5.35,2.47,5.35,6.84-2.03,6.82-5.33,6.82-5.33-2.38-5.33-6.82Zm5.33,6.25c2.48,0,4.1-2.39,4.1-6.3s-1.67-6.25-4.12-6.25-4.11,2.43-4.11,6.25,1.69,6.3,4.12,6.3Z"/>
    <path d="M313.35,22.98c3.89-4.09,5.85-6.16,6.14-8.77,.27-2.21-1.26-3.1-2.88-3.1-.79,0-2.06,.41-3.14,1.69-.13,.14-.33,0-.28-.14,.65-1.71,2.5-2.56,3.85-2.56,2.14,0,3.91,1.44,3.71,3.82-.16,2.04-1.67,3.76-3.01,5.35-1.12,1.33-2.2,2.48-2.97,3.29h5.11c.56,0,.89-.3,1.12-.95,.07-.2,.31-.14,.32,.02,.09,1.5-.29,2.02-1.28,2.02h-6.45c-.36,0-.51-.39-.25-.67Z"/>
    <path d="M330.05,23.77c-.34,0-.56-.27-.56-.63v-2.93h-6.64c-.13,0-.22-.13-.13-.25l7.42-9.81c.18-.23,.47-.13,.47,.11v9.36h1.31c.18,0,.31,.13,.31,.29s-.13,.31-.31,.31h-1.31v2.93c0,.36-.22,.63-.56,.63Zm-.56-4.16v-7.6l-5.74,7.6h5.74Z"/>
  </g>
  <g>
    <path d="M45.08,58.19c0-.46,.35-.8,.83-.8s.8,.34,.8,.8v.45h3.39v-.48c0-.45,.34-.77,.8-.77s.77,.32,.77,.77v18.18c0,.45-.32,.77-.77,.77s-.8-.32-.8-.77v-1.82h-3.39v2.91c0,.48-.34,.83-.8,.83s-.83-.35-.83-.83v-19.24Zm5.03,15.46v-14.15h-3.39v14.15h3.39Zm-.61,9.03c4.07-4.39,4.9-9.16,5.51-17.25l.29-4.23h-2.4c-.24,0-.42-.18-.42-.42s.18-.42,.42-.42h2.45l.3-5.38c.05-1.06,1.68-1.02,1.63,.03-.06,1.5-.18,3.49-.3,5.35h2.98l.02-.48c.03-1.12,1.66-1.06,1.63,.03l-.48,16.61c-.11,3.97-1.98,6.59-6.72,5.63-.35-.06-.29-.58,.03-.58,3.84,0,4.93-1.82,5.06-5.83l.45-14.57h-3.01l-.29,4.29c-.48,7.78-1.47,13.61-6.79,17.61-.29,.22-.54-.19-.35-.42Zm13.48-24.46c0-.45,.34-.77,.8-.77s.77,.32,.77,.77v.48h3.84v-.48c0-.45,.34-.77,.8-.77s.77,.32,.77,.77v23.37c0,.46-.32,.8-.77,.8s-.8-.34-.8-.8v-2.24h-3.84v2.59c0,.46-.32,.8-.77,.8s-.8-.34-.8-.8v-23.72Zm5.41,20.26v-18.92h-3.84v18.92h3.84Z"/>
    <path d="M87.77,58.13c0-.46,.35-.8,.83-.8s.8,.34,.8,.8v.45h3.39v-.45c0-.46,.35-.8,.83-.8s.8,.34,.8,.8v18.47c0,.46-.34,.8-.8,.8s-.83-.34-.83-.8v-1.15h-3.39v2.11c0,.48-.34,.83-.8,.83s-.83-.35-.83-.83v-19.43Zm5.03,16.45v-15.14h-3.39v15.14h3.39Zm1.22,8.1c6.29-3.89,6.98-7.49,7.01-15.3h-4.51c-.26,0-.45-.19-.45-.45s.19-.45,.45-.45h4.51v-5.83h-4.83c-.26,0-.45-.19-.45-.45s.19-.45,.45-.45h4.83v-4.61c0-.51,.37-.86,.9-.86,.48,0,.83,.35,.83,.86v12.55c0,8.39-1.54,12.93-8.48,15.46-.32,.13-.51-.32-.26-.48Zm6.02-10.15c.22-.16,.48,.1,.38,.29-1.09,1.92-2.53,3.23-4.39,3.65-.99,.22-1.41-1.25-.45-1.57,1.92-.67,2.88-1.15,4.45-2.37Zm5.89-17.42c0-.51,.35-.86,.86-.86s.86,.35,.86,.86v4.64h3.2c.64,0,1.06-.26,1.47-.26s.7,.29,.7,.71-.29,.7-.7,.7-.83-.26-1.41-.26h-3.26v5.83h2.88c.64,0,1.06-.26,1.47-.26s.7,.29,.7,.71-.29,.7-.7,.7-.83-.26-1.41-.26h-2.95v6.24h4c.67,0,1.09-.26,1.5-.26s.7,.3,.7,.74c0,.4-.29,.67-.7,.67s-.83-.26-1.44-.26h-4.07v7.78c0,.48-.35,.83-.86,.83s-.86-.35-.86-.83v-27.18Z"/>
    <path d="M127.61,82.75c3.1-4.48,3.18-10.12,3.18-18.38v-6.56c0-.46,.34-.8,.8-.8s.83,.34,.83,.8v.42h21.21c.61,0,1.02-.26,1.44-.26s.7,.29,.7,.7-.29,.7-.7,.7-.83-.26-1.41-.26h-21.24v5.92c0,8-.14,13.76-4.37,18.05-.29,.29-.64-.08-.45-.35Zm8.04-2.8v-2.8h-1.95c-.24,0-.42-.18-.42-.42s.18-.42,.42-.42h1.95v-2.37h-2.11c-.24,0-.42-.18-.42-.42s.18-.42,.42-.42h4.29c.61,0,1.02-.26,1.41-.26,.42,0,.7,.27,.7,.67s-.29,.67-.7,.67c-.38,0-.8-.26-1.38-.26h-.8v2.37h.26c.61,0,1.02-.26,1.41-.26,.42,0,.7,.27,.7,.67s-.29,.67-.7,.67c-.38,0-.8-.26-1.38-.26h-.29v2.51c.9-.21,1.76-.46,2.69-.78,.22-.06,.37,.24,.16,.38-1.83,1.26-4.29,2.21-6.95,2.43-.9,.06-.96-1.25-.1-1.34,1.01-.13,1.92-.26,2.79-.4Zm-2.02-19.19h7.91c.61,0,.99-.26,1.38-.26s.67,.27,.67,.67-.27,.7-.67,.7c-.35,0-.7-.24-1.22-.29v21.03c0,.4-.29,.67-.7,.67s-.7-.27-.7-.67v-14.89h-4v2.3c1.26-.18,2.42-.38,3.33-.64,.26-.06,.35,.26,.19,.38-1.73,1.12-3.62,1.73-5.92,1.89-.96,.06-1.09-1.28-.19-1.34l1.18-.11v-8.63h-1.25c-.24,0-.42-.18-.42-.42s.18-.42,.42-.42Zm6.66,3.17v-2.34h-4v2.34h4Zm0,2.98v-2.15h-4v2.15h4Zm-.54-12.68c1.92,.1,4.18,.75,5.19,1.89,.91,1.04-.29,2.13-1.12,1.42-1.5-1.25-2.8-2.26-4.16-2.9-.22-.11-.14-.43,.1-.42Zm4.67,21.71c.03-.19,.38-.22,.42,.03,.19,1.76-.26,3.97-1.57,5.06-.74,.58-1.67-.38-.93-1.12,1.15-1.15,1.79-2.62,2.08-3.97Zm-1.38-4.03h10.31c.61,0,.99-.26,1.38-.26s.67,.27,.67,.67-.27,.67-.67,.67-.77-.26-1.34-.26h-10.34c-.24,0-.42-.18-.42-.42s.18-.42,.42-.42Zm.45-9.51h4.87v-1.99c0-.42,.29-.7,.7-.7s.7,.29,.7,.7v1.99h3.39c.61,0,.99-.26,1.38-.26s.67,.27,.67,.67-.27,.67-.67,.67-.77-.26-1.34-.26h-3.43v1.89h3.2v-.16c0-.38,.29-.67,.67-.67s.67,.29,.67,.67v5.33c0,.38-.29,.66-.67,.66s-.67-.27-.67-.66v-.37h-7.75v.48c0,.38-.29,.67-.67,.67s-.67-.29-.67-.67v-5.44c0-.38,.29-.67,.67-.67s.67,.29,.67,.67v.16h3.14v-1.89h-4.87c-.24,0-.42-.18-.42-.42s.18-.42,.42-.42Zm3.46,6.69v-3.14h-1.73v3.14h1.73Zm-1.06,5.86c0-.43,.27-.74,.67-.74s.7,.3,.7,.74v4.58c0,1.15,.74,1.71,1.84,1.78,.5,.03,1.26,.03,1.78,0,1.47-.1,1.79-1.3,1.99-2.42,.03-.22,.38-.22,.42,0,.42,2.14-.42,3.58-2.4,3.71-.48,.03-1.28,.03-1.89,0-1.86-.1-3.1-1.15-3.1-2.98v-4.67Zm2.46-1.6c1.28,.61,2.59,2.24,2.88,3.62,.19,.93-1.18,1.34-1.5,.35-.32-.99-.96-2.72-1.66-3.62-.16-.19,.1-.45,.29-.35Zm1.63-4.26v-3.14h-1.76v3.14h1.76Zm2.98,0v-3.14h-1.76v3.14h1.76Zm-.22,6.56c1.57,.64,3.07,2.4,3.46,4.1,.19,.93-1.15,1.38-1.5,.29-.48-1.38-1.1-2.88-2.16-4.07-.13-.16,.02-.38,.21-.32Z"/>
    <path d="M169.85,82.75c3.1-4.48,3.2-9.6,3.2-16.84v-8.32c0-.46,.34-.8,.8-.8s.83,.34,.83,.8v.42h21.19c.61,0,1.02-.26,1.44-.26s.7,.29,.7,.71-.29,.7-.7,.7-.83-.26-1.41-.26h-21.22v7.68c0,6.98-.16,12.23-4.39,16.52-.29,.29-.64-.08-.45-.35Zm7.44-7.27c.06-.24,.45-.22,.46,.03,.13,2.46-.83,5.38-2.91,6.59-1.06,.58-1.76-.7-1.02-1.34,1.86-1.5,2.83-3.07,3.47-5.28Zm2-15.14c.29-1.06,1.86-.71,1.6,.48-.7,3.04-2.91,6.34-5.35,7.59-.29,.13-.48-.22-.29-.42,1.92-1.98,3.3-5.15,4.03-7.65Zm-1.44,7.23c0-.48,.35-.83,.83-.83s.8,.35,.8,.83v5.47c0,.46-.34,.8-.8,.8s-.83-.34-.83-.8v-5.47Zm2.08,7.55c0-.46,.34-.8,.8-.8s.83,.34,.83,.8v2.8c0,2,.83,2.85,3.25,2.98,1.01,.06,3.38,.06,4.32,0,2.16-.16,2.9-1.26,3.25-3.5,.03-.26,.42-.22,.48,.03,.74,3.07-1.02,4.87-3.62,5.03-1.09,.06-3.49,.06-4.58,0-3.2-.19-4.74-1.6-4.74-4.35v-2.98Zm4.23-14.79c.29-1.06,1.86-.71,1.6,.48-.7,3.04-2.91,6.34-5.35,7.59-.29,.13-.48-.22-.29-.42,1.92-1.98,3.3-5.15,4.03-7.65Zm-2.18-6.12c1.92,.13,3.81,.71,4.8,1.73,.96,.99-.29,2.21-1.15,1.41-1.44-1.31-2.4-2.05-3.75-2.72-.22-.11-.14-.43,.1-.42Zm.86,13.19c0-.46,.35-.8,.83-.8s.8,.34,.8,.8v4.16h4.96v-2.34h-3.87c-.24,0-.42-.18-.42-.42s.18-.42,.42-.42h3.87v-2.15h-3.87c-.24,0-.42-.18-.42-.42s.18-.42,.42-.42h3.87v-2.21h-3.39c-.24,0-.42-.18-.42-.42s.18-.42,.42-.42h3.47c.62-.75,1.12-1.49,1.58-2.31,.54-1.09,1.99-.35,1.47,.61-.38,.74-1.12,1.31-1.92,1.7h3.49c.61,0,.99-.26,1.38-.26s.67,.27,.67,.67c0,.37-.27,.64-.67,.64s-.77-.22-1.34-.22h-3.11v2.21h2.15c.61,0,.99-.26,1.38-.26s.67,.27,.67,.67-.27,.67-.67,.67-.77-.26-1.31-.26h-2.21v2.15h2.15c.61,0,.99-.26,1.38-.26s.67,.27,.67,.67-.27,.67-.67,.67-.77-.26-1.31-.26h-2.21v2.34h3.75c.61,0,.99-.26,1.38-.26s.67,.27,.67,.67-.27,.67-.67,.67-.77-.26-1.34-.26h-10.37v.64c0,.46-.34,.8-.8,.8s-.83-.34-.83-.8v-5.63Zm1.98,6.75c1.89,.42,3.97,1.44,4.93,3.07,.51,.9-.67,1.92-1.34,1.06-1.44-1.86-2.21-2.64-3.78-3.75-.16-.11-.06-.45,.19-.38Zm8.29,.99c2.27,.96,4.19,2.66,5.15,4.96,.42,1.02-.96,1.83-1.57,.67-1.09-2.02-2.11-3.62-3.84-5.22-.18-.18,0-.51,.26-.42Z"/>
    <path d="M213.24,61.49h4.13v-6.37c0-.46,.35-.8,.83-.8s.8,.34,.8,.8v6.37h2.24c.61,0,.99-.26,1.38-.26s.67,.27,.67,.67c0,.37-.27,.64-.67,.64s-.77-.22-1.34-.22h-2.27v5.92c1.23-.69,2.32-1.44,3.46-2.31,.32-.26,.69,.13,.43,.45-1.07,1.3-2.38,2.5-3.89,3.49v8.2c0,3.71-2.21,5.67-5.63,4.8-.29-.06-.26-.48,0-.48,3.23-.16,4-1.63,4-4.93v-6.64c-1.15,.59-2.4,1.07-3.75,1.42-1.15,.29-1.6-1.25-.42-1.6,1.62-.5,2.96-1.01,4.16-1.57v-6.75h-4.13c-.24,0-.42-.18-.42-.42s.18-.42,.42-.42Zm9.67,21.13c3.04-.8,5.87-2.06,8.2-3.81-1.54-1.33-2.75-2.85-3.46-4.48-.1-.26,.22-.5,.42-.27,1.14,1.5,2.56,2.75,4.16,3.81,1.55-1.38,2.8-3.04,3.65-4.98h-8.74c-1.28,4.27-3.65,7.63-7.65,9.92-.29,.16-.61-.19-.35-.42,4.31-3.71,6.23-7.51,7.09-13.03h-3.83c-.24,0-.42-.18-.42-.42s.18-.42,.42-.42h3.95c.11-.91,.21-1.87,.29-2.88h-2.64c-.24,0-.42-.18-.42-.42,0-.26,.18-.45,.42-.45h13.19c.61,0,.99-.22,1.38-.22s.67,.27,.67,.67c0,.37-.27,.64-.67,.64s-.77-.22-1.34-.22h-8.92c-.05,.99-.14,1.95-.27,2.88h10.21c.61,0,.99-.26,1.38-.26s.67,.27,.67,.67-.27,.67-.67,.67-.77-.26-1.34-.26h-10.36c-.14,.93-.34,1.82-.56,2.69h8.85l.11-.32c.32-.96,1.82-.58,1.54,.51-.69,2.51-2.14,4.72-4.18,6.5,1.92,1.06,4.07,1.87,6.32,2.5,1.15,.32,.74,2.02-.45,1.76-2.54-.56-5.09-1.71-7.22-3.23-2.54,1.79-5.76,2.98-9.33,3.36-.29,.03-.38-.45-.1-.51Zm.35-24.59c4.71-.48,11.11-1.66,14.6-3.3,1.12-.51,1.76,.99,.83,1.47-3.79,1.95-10.37,2.59-15.43,2.4-.32,0-.38-.54,0-.58Zm2.18,1.52c1.42,.69,2.71,1.78,3.23,3.36,.37,1.09-1.14,1.71-1.58,.59-.58-1.46-1.2-2.59-1.95-3.58-.16-.22,.11-.48,.3-.37Zm4.42-.53c1.34,.77,2.54,2.05,2.88,3.71,.26,1.23-1.26,1.58-1.63,.45-.45-1.41-.82-2.53-1.57-3.81-.14-.24,.1-.48,.32-.35Zm6.8-.34c.35-1.07,1.92-.67,1.57,.51-.7,2.3-2,3.91-3.97,5.03-.19,.11-.43-.13-.27-.34,1.41-1.81,2.05-3.26,2.67-5.2Z"/>
    <path d="M255.03,62.39c2.3,.58,4.51,1.95,5.54,3.68,.67,1.22-.74,2.11-1.47,1.12-1.18-1.6-2.72-3.23-4.26-4.35-.21-.14-.1-.51,.19-.45Zm.26,17.93c2.72-2.66,4.83-6.15,5.95-10.31,.08-.29,.51-.26,.51,.06,0,4.67-2.4,9.32-5.38,11.72-.9,.74-2.02-.61-1.09-1.47Zm1.98-25.35c2.31,.58,4.51,1.95,5.54,3.68,.67,1.22-.74,2.11-1.47,1.12-1.18-1.6-2.72-3.23-4.26-4.35-.21-.14-.1-.51,.19-.45Zm5.31,9.92h9.22v-4.16c0-.53,.35-.9,.86-.9s.86,.37,.86,.9v4.16h7.04c.64,0,1.06-.26,1.5-.26,.4,0,.67,.27,.67,.67,0,.43-.27,.74-.67,.74-.45,0-.86-.26-1.47-.26h-7.08v5.67h4.58v-.48c0-.53,.35-.9,.86-.9s.86,.37,.86,.9v11.33c0,.48-.35,.83-.86,.83s-.86-.35-.86-.83v-1.92h-10.82v2.08c0,.48-.35,.83-.86,.83s-.9-.35-.9-.83v-11.49c0-.53,.37-.9,.9-.9s.86,.37,.86,.9v.48h4.51v-5.67h-9.22c-.26,0-.45-.19-.45-.48,0-.24,.19-.42,.45-.42Zm16.74-9.67c1.12-.51,1.73,1.02,.67,1.57-4.42,2.24-10.08,3.04-15.17,3.04-.32,0-.35-.5-.03-.54,4.96-.74,10.21-2.1,14.53-4.07Zm-1.22,24.33v-7.27h-10.82v7.27h10.82Z"/>
    <path d="M297.31,60.37h7.2v-1.12c0-.48,.35-.83,.83-.83s.8,.35,.8,.83v1.12h4.96c.61,0,.99-.26,1.41-.26,.38,0,.67,.29,.67,.67s-.29,.67-.67,.67c-.42,0-.8-.26-1.38-.26h-4.99v2.85h3.75v-.35c0-.45,.34-.77,.8-.77s.77,.32,.77,.77v8.93c0,.45-.32,.77-.77,.77s-.8-.32-.8-.77v-.45h-3.75v2.98h3.87c.58,0,.99-.26,1.38-.26s.67,.27,.67,.67-.27,.67-.67,.67-.8-.26-1.34-.26h-3.91v3.11c2.14-.42,4.18-.96,6.02-1.66,.29-.11,.5,.27,.26,.45-3.65,2.62-9.54,3.71-14.41,3.81-1.06,0-1.09-1.6-.06-1.63,2.24-.11,4.45-.34,6.56-.67v-3.39h-5.38c-.24,0-.42-.18-.42-.42s.18-.42,.42-.42h5.38v-2.98h-3.78v.77c0,.45-.32,.77-.77,.77s-.8-.32-.8-.77v-9.25c0-.45,.34-.77,.8-.77s.77,.32,.77,.77v.35h3.78v-2.85h-7.2c-.24,0-.42-.18-.42-.42s.18-.42,.42-.42Zm13.61-5.7c.96-.35,1.6,.99,.48,1.5-3.11,1.38-9,2.08-13.22,2.05-.32,0-.35-.51-.03-.54,4.42-.61,8.61-1.5,12.77-3.01Zm-6.4,13v-2.75h-3.78v2.75h3.78Zm0,3.65v-2.78h-3.78v2.78h3.78Zm5.38-3.65v-2.75h-3.75v2.75h3.75Zm0,3.65v-2.78h-3.75v2.78h3.75Zm-.58,11.33c5.22-4.45,6.18-10.85,6.53-17.9l.11-2.11h-2.74c-.24,0-.42-.18-.42-.42s.18-.42,.42-.42h2.77l.34-6.79c.05-1.12,1.68-1.09,1.63,0l-.34,6.79h4.03l.02-.54c.03-1.12,1.67-1.06,1.63,.03l-.42,15.17c-.11,4.03-2.15,6.79-7.24,5.63-.35-.08-.29-.51,0-.51,4.23-.06,5.49-1.76,5.6-5.76l.38-13.19h-4.05l-.14,2.85c-.34,6.98-1.47,13.93-7.81,17.61-.32,.16-.54-.22-.32-.45Z"/>
  </g>
  <g>
    <path d="M358.35,41.16c-1.69-.01-3.38-.02-5.06-.04-4.54-.03-9.08-.07-13.62-.1-6.62-.05-13.23-.09-19.85-.14-7.91-.06-15.82-.11-23.73-.17-8.43-.06-16.86-.12-25.29-.18-8.17-.06-16.34-.12-24.51-.18-3.29-.02-6.59-.05-9.88-.07-2.02-.01-7.47,1.02-8.66-1.08-.19,.55-.75,.96-1.33,.96s-1.15-.39-1.34-.94c-.47,.69-1.32,1.1-2.15,1.03-1.34-.11-2.28-1.49-3.12-2.4l-1.91,1.92c-.09,.09-.19,.19-.3,.26-.87,.54-3.05,.1-4.04,.09-6.58-.05-13.1,.01-19.63-.93-1.49-.21-4.85-.96-4.85-.96-.16,1.13-2.98,2.3-4.7,2.93,1.72,.63,4.53,1.8,4.7,2.93,0,0,3.36-.75,4.85-.96,6.53-.94,13.06-.88,19.63-.93,.99,0,3.17-.44,4.04,.09,.11,.07,.21,.17,.3,.26l1.91,1.92c.84-.91,1.77-2.29,3.12-2.4,.83-.07,1.68,.34,2.15,1.03,.19-.55,.76-.95,1.34-.94s1.14,.41,1.33,.96c1.19-2.1,6.64-1.07,8.66-1.08,3.29-.02,6.59-.05,9.88-.07,8.17-.06,16.34-.12,24.51-.18,8.43-.06,16.86-.12,25.29-.18,7.91-.06,15.82-.11,23.73-.17,6.62-.05,13.23-.09,19.85-.14,4.54-.03,9.08-.07,13.62-.1,1.69-.01,3.38-.02,5.06-.04-.09,0-.18,0-.26,0,.09,0,.18,0,.26,0Zm-161.39,0c-.86,0-1.65,.28-2.45,.54-.88,.28-1.76,.56-2.64,.85-.58,.2-1.3,.48-1.93,.32-.28-.07-.49-.23-.55-.52,0-.02,0-.37,.02-.36-.83-.29-1.69-.56-2.53-.83,0,0,0,0,0,0,0,0,0,0,0,0,.84-.28,1.7-.54,2.53-.83-.02,0-.03-.34-.02-.36,.06-.29,.26-.45,.55-.52,.63-.16,1.35,.12,1.93,.32,.87,.3,1.76,.57,2.64,.85,.8,.26,1.59,.54,2.45,.54-.01,0-.02,0-.03,0,.01,0,.02,0,.03,0Z"/>
    <path d="M10.3,41.16c-.09,0-.18,0-.26,0,1.69,.01,3.38,.02,5.06,.04,4.54,.03,9.08,.07,13.62,.1,6.62,.05,13.23,.09,19.85,.14,7.91,.06,15.82,.11,23.73,.17,8.43,.06,16.86,.12,25.29,.18,8.17,.06,16.34,.12,24.51,.18,3.29,.02,6.59,.05,9.88,.07,2.02,.01,7.47-1.02,8.66,1.08,.19-.55,.75-.96,1.33-.96s1.15,.39,1.34,.94c.47-.69,1.32-1.1,2.15-1.03,1.34,.11,2.28,1.49,3.12,2.4l1.91-1.92c.09-.09,.19-.19,.3-.26,.87-.54,3.05-.1,4.04-.09,6.58,.05,13.1-.01,19.63,.93,1.49,.21,4.85,.96,4.85,.96,.16-1.13,2.98-2.3,4.7-2.93-1.72-.63-4.53-1.8-4.7-2.93,0,0-3.36,.75-4.85,.96-6.53,.94-13.06,.88-19.63,.93-.99,0-3.17,.44-4.04-.09-.11-.07-.21-.17-.3-.26l-1.91-1.92c-.84,.91-1.77,2.29-3.12,2.4-.83,.07-1.68-.34-2.15-1.03-.19,.55-.76,.95-1.34,.94s-1.14-.41-1.33-.96c-1.19,2.1-6.64,1.07-8.66,1.08-3.29,.02-6.59,.05-9.88,.07-8.17,.06-16.34,.12-24.51,.18-8.43,.06-16.86,.12-25.29,.18-7.91,.06-15.82,.11-23.73,.17-6.62,.05-13.23,.09-19.85,.14-4.54,.03-9.08,.07-13.62,.1-1.69,.01-3.38,.02-5.06,.04,.09,0,.18,0,.26,0Zm161.16,0s-.02,0-.03,0c.86,0,1.65-.28,2.45-.54,.88-.28,1.76-.56,2.64-.85,.58-.2,1.3-.48,1.93-.32,.28,.07,.49,.23,.55,.52,0,.02,0,.37-.02,.36,.83,.29,1.69,.56,2.53,.83,0,0,0,0,0,0,0,0,0,0,0,0-.84,.28-1.7,.54-2.53,.83,.02,0,.03,.34,.02,.36-.06,.29-.26,.45-.55,.52-.63,.16-1.35-.12-1.93-.32-.87-.3-1.76-.57-2.64-.85-.8-.26-1.59-.54-2.45-.54,.01,0,.02,0,.03,0Z"/>
  </g>
</svg>