<?xml version="1.0" encoding="UTF-8"?>
<svg id="_圖層_4" data-name="圖層 4" xmlns="http://www.w3.org/2000/svg" viewBox="0 0 368.38 91.81">
  <defs>
    <style>
      .cls-1 {
        fill: #fff;
      }

      .cls-2 {
        fill: #ad9f79;
      }

      .cls-3 {
        fill: #958557;
      }

      .cls-4 {
        fill: none;
      }
    </style>
  </defs>
  <g>
    <path class="cls-4" d="M49.31,26.07c-.52,0-1.03-.05-1.52-.14v39.61c.46-.08,.94-.13,1.43-.13,4.26,0,7.76,3.27,8.15,7.42H356.2V18.98H57.42c-.54,4-3.97,7.09-8.11,7.09Z"/>
    <path class="cls-2" d="M55.42,16.98c.04,.3,.07,.6,.07,.9,0,3.41-2.77,6.18-6.18,6.18-.53,0-1.04-.07-1.52-.2-2.68-.68-4.66-3.1-4.66-5.99,0-.31,.03-.61,.07-.9H1.81v57.85H43.16c-.08-.4-.12-.82-.12-1.24,0-2.92,2.03-5.36,4.75-6.01,.46-.11,.94-.17,1.43-.17,3.41,0,6.18,2.77,6.18,6.18,0,.43-.04,.84-.12,1.24H366.57V16.98H55.42Zm300.78,55.85H57.37c-.38-4.16-3.89-7.42-8.15-7.42-.49,0-.96,.05-1.43,.13V25.92c.49,.09,1,.14,1.52,.14,4.14,0,7.57-3.09,8.11-7.09H356.2v53.85Z"/>
    <g>
      <circle class="cls-3" cx="203.53" cy="45.9" r="2.54"/>
      <path class="cls-3" d="M207.02,35.78c0,4,.86,7.6,2.99,10.12-2.13,2.53-2.99,6.12-2.99,10.12,0,1.95,.32,3.8,.89,5.48,.01-4.71,2.44-9.63,6.25-12.73,.87-.71,1.82-1.33,2.82-1.82,1.03-.51,2.05-.84,3.06-1.05-1-.2-2.03-.54-3.06-1.05-1.01-.5-1.95-1.11-2.82-1.82-3.82-3.11-6.24-8.03-6.25-12.73-.57,1.68-.89,3.53-.89,5.48Z"/>
    </g>
  </g>
  <g>
    <path class="cls-1" d="M13.75,33.85l1.35,.58c-.2,2.45-.67,6.32-1.55,10.22l-1.4-.9c.9-3.57,1.42-7.7,1.6-9.9Zm-1.27-10.77l1.02-.92c.53,1.15,.9,2.15,1.35,3.72l-1.22,1.07c-.35-1.67-.7-2.8-1.15-3.87Zm1.08,4.65c.52,1.15,.9,2.15,1.35,3.72l-1.22,1.08c-.35-1.67-.7-2.8-1.15-3.87l1.03-.92Zm1.57,.35h3.12v-3.55c-.85,.15-1.72,.27-2.55,.38l-.38-1.42c2.45-.28,5.07-.83,6.57-1.33l.65,1.38c-.72,.22-1.72,.47-2.85,.7v3.85h3.12v1.4h-3.12v3.97h2.47v10.45h-6.4v-10.45h2.47v-3.97h-3.12v-1.4Zm5.6,14.42v-7.65h-3.5v7.65h3.5Z"/>
    <path class="cls-1" d="M25.5,44.2l-.12-1.45c.8-.12,1.57-.27,2.27-.45v-3.15h-1.9v-1.35h1.9v-1.88h-1.85v-8.27h1.85v-1.35h-2.1v-1.35h2.1v-.95c-.55,.08-1.1,.12-1.62,.15l-.3-1.25c1.62-.1,3.65-.42,4.62-.77l.55,1.22c-.45,.17-1.1,.32-1.85,.45v1.15h2.1v1.35h-2.1v1.35h1.85v8.27h-1.85v1.88h1.9v1.35h-1.9v2.8c.62-.2,1.22-.4,1.77-.6v1.4c-1.12,.5-3.07,1.08-5.32,1.45Zm2.25-13.17v-2.02h-.75v2.02h.75Zm0,3.55v-2.25h-.75v2.25h.75Zm1.95-3.55v-2.02h-.75v2.02h.75Zm0,3.55v-2.25h-.75v2.25h.75Zm2.65-5.97h-1.25v-1.35h1.27c.03-1.6,.03-3.3,.03-5.1l1.35,.25v4.85h2.3c.03,5.45-.02,10.5-.27,14.62-.12,2.22-.83,3.35-3.22,2.52v-1.7c1.4,.78,1.7,.85,1.85-1.22,.25-3.5,.35-8.87,.3-12.87h-.97c-.1,7.1-.55,11.57-1.85,16.1l-1.25-1.12c1.25-4.05,1.62-8.77,1.72-14.97Z"/>
    <path class="cls-1" d="M12.38,48.41h3.65v19.59h-3.65v-19.59Zm2.35,8.6v-7.2h-1.05v7.2h1.05Zm0,9.6v-8.25h-1.05v8.25h1.05Zm5.55-12.27h2.45v1.4h-6.37v-1.4h2.47v-3.07h-2.15v-1.4h2.15v-2.67h1.45v2.67h2.15v1.4h-2.15v3.07Zm-3.75,3.55h3.47v-1.55h1.45v1.55h1.17v1.4h-1.17v7.4c0,2.27-.88,3.77-3.72,2.57l.05-1.87c1.87,1.17,2.22,1.3,2.22-1.35v-6.75h-3.47v-1.4Zm1.25,2.3c.58,1.42,1,2.7,1.45,4.85l-1.27,1.07c-.38-2.15-.77-3.72-1.22-4.95l1.05-.97Z"/>
    <path class="cls-1" d="M30.33,47.41v8.8h-3.3v13.45h-1.4v-22.25h4.7Zm-1.35,3.65v-2.3h-1.95v2.3h1.95Zm0,3.8v-2.45h-1.95v2.45h1.95Zm-.8,2.75h5.15v9.67h-5.15v-9.67Zm3.85,4.1v-2.75h-2.55v2.75h2.55Zm0,4.22v-2.92h-2.55v2.92h2.55Zm-.85-18.52h4.7v17.65c0,2.27-.52,3.8-2.5,4.62l-.75-1.32c1.82-.8,1.85-1.55,1.85-3.55v-8.6h-3.3v-8.8Zm3.3,3.65v-2.3h-1.95v2.3h1.95Zm0,3.8v-2.45h-1.95v2.45h1.95Z"/>
  </g>
  <g>
    <g>
      <path d="M76.14,56.95v-23.49c0-3.33,2.47-5.8,5.8-5.8s5.8,2.47,5.8,5.8v23.49c0,3.33-2.47,5.8-5.8,5.8s-5.8-2.48-5.8-5.8Zm3.06-.45c0,2.02,1.17,3.29,2.74,3.29s2.75-1.26,2.75-3.29v-23.04c0-1.58-1.17-2.75-2.75-2.75s-2.74,1.17-2.74,2.75v23.04Z"/>
      <path d="M92.79,55.28v-2.21h3.15v1.75c0,3.6,.86,4.95,2.66,4.95,2.21,0,2.75-2.25,2.75-4.95v-9.09c-.63,1.71-2.29,2.43-3.15,2.43-3.87,0-5.35-3.82-5.35-7.74v-6.39c0-3.74,2.83-6.39,5.8-6.39s5.76,2.65,5.76,6.39v21.24c0,4.41-2.12,7.47-5.8,7.47-3.46,0-5.8-2.75-5.8-7.47Zm3.1-15.25c0,3.6,.54,5.17,2.29,5.17s3.15-1.71,3.15-5.17v-5.53c0-2.52-1.04-3.87-2.7-3.87s-2.75,1.35-2.75,3.87v5.53Z"/>
      <path d="M110.88,64.01h-2.83l12.46-36.81h2.83l-12.46,36.81Z"/>
      <path d="M127.48,62.3v-3.06l5.49-12.64c2.52-5.76,3.33-9,3.33-11.83s-.9-3.96-2.92-3.96-2.75,1.98-2.75,4.5v3.24h-3.24v-3.24c0-4.86,2.79-7.65,5.99-7.65s6.07,1.98,6.07,7.51c0,2.25-1.04,6.71-3.69,12.73l-4.91,11.25h8.46v3.15h-11.83Z"/>
      <path d="M155.29,48.76v7.16c0,3.51-2.07,6.84-5.89,6.84s-5.8-3.33-5.8-6.84v-7.16c0-2.43,1.12-4.5,2.83-5.58-1.44-1.04-2.47-2.79-2.47-5v-4.59c0-3.24,2.11-5.94,5.44-5.94s5.54,2.52,5.54,5.94v4.59c0,2.25-1.08,4-2.57,5,1.75,1.12,2.92,3.19,2.92,5.58Zm-5.89,11.03c2.34,0,2.83-1.62,2.83-4.28v-6.34c0-2.47-.67-4.59-2.83-4.59s-2.75,2.12-2.75,4.59v6.34c0,2.66,.95,4.28,2.75,4.28Zm0-17.86c1.53,0,2.48-1.26,2.48-4.28v-3.29c0-2.38-.32-3.73-2.48-3.73-1.98,0-2.38,1.39-2.38,3.73v3.29c0,3.01,.95,4.28,2.38,4.28Z"/>
      <path d="M165.34,52.88c0-4.12,1-8.65,3.05-11.85l1.32,.77c-2.27,3.57-2.92,7.65-2.92,11.07s.6,7.25,2.92,10.85l-1.32,.88c-2.1-3.32-3.05-7.62-3.05-11.72Z"/>
      <path d="M178.49,46.48h4.62v1.45h-10.75v-1.45h4.62v-4.92h1.5v4.92Zm-3.22,4.8l1.37,.62c-.4,2.87-1.4,7.65-2.9,12.15l-1.3-1.08c1.5-4.3,2.45-8.85,2.82-11.7Zm4.65-.27c.88,2.57,2.32,7.82,3.17,11.92l-1.45,1.1c-.77-4.32-2.05-9.47-2.92-12l1.2-1.02Z"/>
      <path d="M189.02,52.88c0-3.42-.65-7.5-2.92-11.07l1.33-.77c2.05,3.2,3.05,7.72,3.05,11.85s-.95,8.4-3.05,11.72l-1.33-.88c2.32-3.6,2.92-7.47,2.92-10.85Z"/>
    </g>
    <g>
      <path d="M238.16,62.3h-3.06V31.75c-1.26,1.3-3.28,2.88-5.26,3.73v-3.28c1.67-.86,4.05-3.01,4.82-4.09h3.51V62.3Z"/>
      <path d="M245.41,56.95v-23.49c0-3.33,2.48-5.8,5.8-5.8s5.8,2.47,5.8,5.8v23.49c0,3.33-2.47,5.8-5.8,5.8s-5.8-2.48-5.8-5.8Zm3.06-.45c0,2.02,1.17,3.29,2.74,3.29s2.75-1.26,2.75-3.29v-23.04c0-1.58-1.17-2.75-2.75-2.75s-2.74,1.17-2.74,2.75v23.04Z"/>
      <path d="M263.95,64.01h-2.83l12.46-36.81h2.83l-12.46,36.81Z"/>
      <path d="M280.51,56.95v-23.49c0-3.33,2.48-5.8,5.8-5.8s5.8,2.47,5.8,5.8v23.49c0,3.33-2.47,5.8-5.8,5.8s-5.8-2.48-5.8-5.8Zm3.06-.45c0,2.02,1.17,3.29,2.74,3.29s2.75-1.26,2.75-3.29v-23.04c0-1.58-1.17-2.75-2.75-2.75s-2.74,1.17-2.74,2.75v23.04Z"/>
      <path d="M304.36,43.81c2.39,.95,4.05,2.97,4.05,6.66v4.68c0,4.99-2.66,7.56-5.94,7.56s-5.85-2.66-5.85-6.79v-3.55h3.06v2.88c0,2.79,.72,4.5,2.79,4.5s2.88-1.8,2.88-5.27v-3.24c0-3.2-1.75-6.08-4.9-6.08v-2.56c3.55,0,4.9-2.88,4.9-5.45v-2.11c0-2.61-.9-4.41-2.88-4.41s-2.7,1.39-2.7,4v3.19h-2.97v-3.96c0-3.87,2.43-6.21,5.67-6.21s5.94,2.52,5.94,6.61v3.69c0,2.83-1.53,4.86-4.05,5.85Z"/>
      <path d="M318.41,52.88c0-4.12,1-8.65,3.05-11.85l1.32,.77c-2.27,3.57-2.92,7.65-2.92,11.07s.6,7.25,2.92,10.85l-1.32,.88c-2.1-3.32-3.05-7.62-3.05-11.72Z"/>
      <path d="M325.94,42.56h9.75v20.75h-9.75v-20.75Zm8.3,19.35v-5.4h-.97c-1.05,0-1.85-.97-1.85-2.22v-10.32h-1.2c-.02,5.9-.3,11.2-1.77,14.42l-1.05-1.17v4.7h6.85Zm-5.37-17.95h-1.47v13.07c1.22-3,1.45-7.25,1.47-13.07Zm4.65,11.15h.72v-11.15h-1.47v10.07c0,.65,.1,1.08,.75,1.08Z"/>
      <path d="M342.09,52.88c0-3.42-.65-7.5-2.92-11.07l1.33-.77c2.05,3.2,3.05,7.72,3.05,11.85s-.95,8.4-3.05,11.72l-1.33-.88c2.32-3.6,2.92-7.47,2.92-10.85Z"/>
    </g>
  </g>
</svg>