<?xml version="1.0" encoding="UTF-8"?>
<svg xmlns="http://www.w3.org/2000/svg" viewBox="0 0 50.18 57.07">
  <defs>
    <style>
      .cls-1 {
        fill: #fff;
      }
    </style>
  </defs>
  <g id="_圖層_4" data-name="圖層 4">
    <path class="cls-1" d="M47.6,22.25c-2.99-1.65-6.17-2.48-9.47-2.48-1.66,0-3.25,.17-4.77,.47,0-1.95-.7-3.75-1.85-5.16,.51-.54,.83-1.26,.83-2.07v-1.78c1.74-.75,2.86-2.42,2.86-4.51v-1.92c0-2.66-2.15-4.66-5-4.66h-1.74c-.45,0-.87,.1-1.25,.28-.64-.27-1.33-.41-2.03-.41-.65,0-1.3,.12-1.91,.35-.34-.14-.71-.22-1.11-.22h-4.21c-1.66,0-3,1.34-3,3v.86c0,1.18,.68,2.2,1.66,2.69v6.34c0,1.16,.66,2.15,1.62,2.65-.88,1.31-1.4,2.88-1.41,4.58-1.52-.3-3.11-.47-4.77-.47-3.3,0-6.48,.84-9.47,2.48-1.99,1.1-2.99,3.41-2.43,5.62,.56,2.21,2.55,3.75,4.82,3.76,4.06,.02,8.86,4.18,11.95,10.35,.81,1.61,1.49,3.34,2.03,5.13,.54,1.78,.93,3.65,1.17,5.57,.31,2.5,2.44,4.39,4.96,4.39s4.65-1.88,4.96-4.39c.24-1.92,.63-3.8,1.17-5.57,.54-1.79,1.23-3.52,2.03-5.13,3.09-6.18,7.89-10.34,11.95-10.35,2.28,0,4.26-1.56,4.82-3.76,.56-2.21-.44-4.52-2.43-5.62Z"/>
  </g>
  <g id="_圖層_3_拷貝_3" data-name="圖層 3 拷貝 3">
    <g>
      <circle cx="25.09" cy="20.28" r="3.27"/>
      <path d="M38.13,24.76c-5.15,0-9.78,1.81-13.04,6.27-3.25-4.46-7.88-6.27-13.04-6.27-2.51,0-4.89,.67-7.06,1.86,6.06,.02,12.4,5.11,16.4,13.12,.91,1.83,1.71,3.81,2.35,5.92,.65,2.15,1.09,4.3,1.35,6.41,.26-2.11,.69-4.25,1.35-6.41,.64-2.11,1.43-4.09,2.35-5.92,4-8,10.34-13.09,16.4-13.12-2.16-1.19-4.55-1.86-7.06-1.86Z"/>
    </g>
    <g>
      <path d="M22.17,3.13v.86h-1.66V13.01h-.88V3.99h-1.66v-.86h4.21Z"/>
      <path d="M25.18,3c1.01,0,1.95,.52,1.95,2.38v5.54c0,1.64-.94,2.22-1.95,2.22s-2.03-.58-2.03-2.22V5.38c0-1.86,.99-2.38,2.03-2.38Zm0,9.28c.55,0,1.07-.34,1.07-1.53V5.51c0-1.33-.47-1.65-1.07-1.65s-1.14,.33-1.14,1.65v5.24c0,1.2,.6,1.53,1.14,1.53Z"/>
      <path d="M32.2,4.79v1.92c0,1.2-.78,1.94-2,1.94h-.86v4.35h-.88V3.13h1.74c1.09,0,2,.58,2,1.66Zm-2.13,3c.87,0,1.27-.3,1.27-1.34v-1.38c0-.98-.43-1.09-1.27-1.09h-.73v3.81h.73Z"/>
    </g>
  </g>
</svg>